<svg width="50" height="50" viewBox="0 0 50 50" fill="none" xmlns="http://www.w3.org/2000/svg">
<circle cx="24.5876" cy="24.5876" r="24.5876" fill="#B0B0B0"/>
<mask id="mask0_780_958" style="mask-type:alpha" maskUnits="userSpaceOnUse" x="10" y="10" width="30" height="30">
<rect x="10" y="10" width="30" height="30" fill="#D9D9D9"/>
</mask>
<g mask="url(#mask0_780_958)">
<path d="M11.25 38.75L13.6875 30.375C13.2917 29.5208 12.9946 28.6458 12.7962 27.75C12.5987 26.8542 12.5 25.9375 12.5 25C12.5 23.2708 12.8283 21.6458 13.485 20.125C14.1408 18.6042 15.0313 17.2812 16.1562 16.1563C17.2812 15.0313 18.6042 14.1404 20.125 13.4837C21.6458 12.8279 23.2708 12.5 25 12.5C26.7292 12.5 28.3542 12.8279 29.875 13.4837C31.3958 14.1404 32.7188 15.0313 33.8438 16.1563C34.9688 17.2812 35.8592 18.6042 36.515 20.125C37.1717 21.6458 37.5 23.2708 37.5 25C37.5 26.7292 37.1717 28.3542 36.515 29.875C35.8592 31.3958 34.9688 32.7188 33.8438 33.8438C32.7188 34.9688 31.3958 35.8592 29.875 36.515C28.3542 37.1717 26.7292 37.5 25 37.5C24.0625 37.5 23.1458 37.4008 22.25 37.2025C21.3542 37.005 20.4792 36.7083 19.625 36.3125L11.25 38.75ZM14.9375 35.0625L18.9375 33.875C19.2292 33.7917 19.5258 33.7604 19.8275 33.7812C20.13 33.8021 20.4167 33.875 20.6875 34C21.3542 34.3333 22.0521 34.5833 22.7812 34.75C23.5104 34.9167 24.25 35 25 35C27.7917 35 30.1562 34.0312 32.0938 32.0938C34.0312 30.1562 35 27.7917 35 25C35 22.2083 34.0312 19.8437 32.0938 17.9062C30.1562 15.9687 27.7917 15 25 15C22.2083 15 19.8438 15.9687 17.9062 17.9062C15.9688 19.8437 15 22.2083 15 25C15 25.75 15.0833 26.4896 15.25 27.2188C15.4167 27.9479 15.6667 28.6458 16 29.3125C16.1458 29.5833 16.2242 29.8696 16.235 30.1712C16.245 30.4737 16.2083 30.7708 16.125 31.0625L14.9375 35.0625ZM23.75 30H26.25V26.25H30V23.75H26.25V20H23.75V23.75H20V26.25H23.75V30Z" fill="white"/>
</g>
</svg>

