<svg width="142" height="461" viewBox="0 0 142 461" fill="none" xmlns="http://www.w3.org/2000/svg">
<path opacity="0.2" d="M71.1768 0.823273C71.0792 0.725647 70.9209 0.725647 70.8233 0.823273L69.2323 2.41428C69.1347 2.5119 69.1347 2.6702 69.2323 2.76782C69.3299 2.86545 69.4882 2.86545 69.5858 2.76782L71.0001 1.35361L72.4143 2.76782C72.5119 2.86545 72.6702 2.86545 72.7678 2.76782C72.8654 2.6702 72.8654 2.5119 72.7678 2.41428L71.1768 0.823273ZM71.2501 449.473L71.2501 448.472L70.7501 448.472L70.7501 449.473L71.2501 449.473ZM71.2501 446.47L71.2501 444.468L70.7501 444.468L70.7501 446.47L71.2501 446.47ZM71.2501 442.466L71.2501 440.464L70.7501 440.464L70.7501 442.466L71.2501 442.466ZM71.2501 438.462L71.2501 436.459L70.7501 436.459L70.7501 438.462L71.2501 438.462ZM71.2501 434.457L71.2501 432.455L70.7501 432.455L70.7501 434.457L71.2501 434.457ZM71.2501 430.453L71.2501 428.451L70.7501 428.451L70.7501 430.453L71.2501 430.453ZM71.2501 426.449L71.2501 424.447L70.7501 424.447L70.7501 426.449L71.2501 426.449ZM71.2501 422.445L71.2501 420.443L70.7501 420.443L70.7501 422.445L71.2501 422.445ZM71.2501 418.44L71.2501 416.438L70.7501 416.438L70.7501 418.44L71.2501 418.44ZM71.2501 414.436L71.2501 412.434L70.7501 412.434L70.7501 414.436L71.2501 414.436ZM71.2501 410.432L71.2501 408.43L70.7501 408.43L70.7501 410.432L71.2501 410.432ZM71.2501 406.428L71.2501 404.426L70.7501 404.426L70.7501 406.428L71.2501 406.428ZM71.2501 402.424L71.2501 400.421L70.7501 400.421L70.7501 402.424L71.2501 402.424ZM71.2501 398.419L71.2501 396.417L70.7501 396.417L70.7501 398.419L71.2501 398.419ZM71.2501 394.415L71.2501 392.413L70.7501 392.413L70.7501 394.415L71.2501 394.415ZM71.2501 390.411L71.2501 388.409L70.7501 388.409L70.7501 390.411L71.2501 390.411ZM71.2501 386.407L71.2501 384.404L70.7501 384.404L70.7501 386.407L71.2501 386.407ZM71.2501 382.402L71.2501 380.4L70.7501 380.4L70.7501 382.402L71.2501 382.402ZM71.2501 378.398L71.2501 376.396L70.7501 376.396L70.7501 378.398L71.2501 378.398ZM71.2501 374.394L71.2501 372.392L70.7501 372.392L70.7501 374.394L71.2501 374.394ZM71.2501 370.39L71.2501 368.388L70.7501 368.388L70.7501 370.39L71.2501 370.39ZM71.2501 366.385L71.2501 364.383L70.7501 364.383L70.7501 366.385L71.2501 366.385ZM71.2501 362.381L71.2501 360.379L70.7501 360.379L70.7501 362.381L71.2501 362.381ZM71.2501 358.377L71.2501 356.375L70.7501 356.375L70.7501 358.377L71.2501 358.377ZM71.2501 354.373L71.2501 352.371L70.7501 352.371L70.7501 354.373L71.2501 354.373ZM71.2501 350.369L71.2501 348.366L70.7501 348.366L70.7501 350.369L71.2501 350.369ZM71.2501 346.364L71.2501 344.362L70.7501 344.362L70.7501 346.364L71.2501 346.364ZM71.2501 342.36L71.2501 340.358L70.7501 340.358L70.7501 342.36L71.2501 342.36ZM71.2501 338.356L71.2501 336.354L70.7501 336.354L70.7501 338.356L71.2501 338.356ZM71.2501 334.352L71.2501 332.35L70.7501 332.35L70.7501 334.352L71.2501 334.352ZM71.2501 330.347L71.2501 328.345L70.7501 328.345L70.7501 330.347L71.2501 330.347ZM71.2501 326.343L71.2501 324.341L70.7501 324.341L70.7501 326.343L71.2501 326.343ZM71.2501 322.339L71.2501 320.337L70.7501 320.337L70.7501 322.339L71.2501 322.339ZM71.2501 318.335L71.2501 316.333L70.7501 316.333L70.7501 318.335L71.2501 318.335ZM71.2501 314.331L71.2501 312.328L70.7501 312.328L70.7501 314.331L71.2501 314.331ZM71.2501 310.326L71.2501 308.324L70.7501 308.324L70.7501 310.326L71.2501 310.326ZM71.2501 306.322L71.2501 304.32L70.7501 304.32L70.7501 306.322L71.2501 306.322ZM71.2501 302.318L71.2501 300.316L70.7501 300.316L70.7501 302.318L71.2501 302.318ZM71.2501 298.314L71.2501 296.312L70.7501 296.312L70.7501 298.314L71.2501 298.314ZM71.2501 294.309L71.2501 292.307L70.7501 292.307L70.7501 294.309L71.2501 294.309ZM71.2501 290.305L71.2501 288.303L70.7501 288.303L70.7501 290.305L71.2501 290.305ZM71.2501 286.301L71.2501 284.299L70.7501 284.299L70.7501 286.301L71.2501 286.301ZM71.2501 282.297L71.2501 280.295L70.7501 280.295L70.7501 282.297L71.2501 282.297ZM71.2501 278.293L71.2501 276.291L70.7501 276.291L70.7501 278.293L71.2501 278.293ZM71.2501 274.288L71.2501 272.286L70.7501 272.286L70.7501 274.288L71.2501 274.288ZM71.2501 270.284L71.2501 268.282L70.7501 268.282L70.7501 270.284L71.2501 270.284ZM71.2501 266.28L71.2501 264.278L70.7501 264.278L70.7501 266.28L71.2501 266.28ZM71.2501 262.276L71.2501 260.274L70.7501 260.274L70.7501 262.276L71.2501 262.276ZM71.2501 258.272L71.2501 256.269L70.7501 256.269L70.7501 258.272L71.2501 258.272ZM71.2501 254.267L71.2501 252.265L70.7501 252.265L70.7501 254.267L71.2501 254.267ZM71.2501 250.263L71.2501 248.261L70.7501 248.261L70.7501 250.263L71.2501 250.263ZM71.2501 246.259L71.2501 244.257L70.7501 244.257L70.7501 246.259L71.2501 246.259ZM71.2501 242.255L71.2501 240.253L70.7501 240.253L70.7501 242.255L71.2501 242.255ZM71.2501 238.251L71.2501 236.248L70.7501 236.248L70.7501 238.251L71.2501 238.251ZM71.2501 234.246L71.2501 232.244L70.7501 232.244L70.7501 234.246L71.2501 234.246ZM71.2501 230.242L71.2501 228.24L70.7501 228.24L70.7501 230.242L71.2501 230.242ZM71.2501 226.238L71.2501 224.236L70.7501 224.236L70.7501 226.238L71.2501 226.238ZM71.2501 222.234L71.2501 220.232L70.7501 220.232L70.7501 222.234L71.2501 222.234ZM71.2501 218.229L71.2501 216.227L70.7501 216.227L70.7501 218.229L71.2501 218.229ZM71.2501 214.225L71.2501 212.223L70.7501 212.223L70.7501 214.225L71.2501 214.225ZM71.2501 210.221L71.2501 208.219L70.7501 208.219L70.7501 210.221L71.2501 210.221ZM71.2501 206.217L71.2501 204.215L70.7501 204.215L70.7501 206.217L71.2501 206.217ZM71.2501 202.213L71.2501 200.211L70.7501 200.211L70.7501 202.213L71.2501 202.213ZM71.2501 198.208L71.2501 196.206L70.7501 196.206L70.7501 198.208L71.2501 198.208ZM71.2501 194.204L71.2501 192.202L70.7501 192.202L70.7501 194.204L71.2501 194.204ZM71.2501 190.2L71.2501 188.198L70.7501 188.198L70.7501 190.2L71.2501 190.2ZM71.2501 186.196L71.2501 184.194L70.7501 184.194L70.7501 186.196L71.2501 186.196ZM71.2501 182.192L71.2501 180.189L70.7501 180.189L70.7501 182.192L71.2501 182.192ZM71.2501 178.187L71.2501 176.185L70.7501 176.185L70.7501 178.187L71.2501 178.187ZM71.2501 174.183L71.2501 172.181L70.7501 172.181L70.7501 174.183L71.2501 174.183ZM71.2501 170.179L71.2501 168.177L70.7501 168.177L70.7501 170.179L71.2501 170.179ZM71.2501 166.175L71.2501 164.173L70.7501 164.173L70.7501 166.175L71.2501 166.175ZM71.2501 162.171L71.2501 160.168L70.7501 160.168L70.7501 162.171L71.2501 162.171ZM71.2501 158.166L71.2501 156.164L70.7501 156.164L70.7501 158.166L71.2501 158.166ZM71.2501 154.162L71.2501 152.16L70.7501 152.16L70.7501 154.162L71.2501 154.162ZM71.2501 150.158L71.2501 148.156L70.7501 148.156L70.7501 150.158L71.2501 150.158ZM71.2501 146.154L71.2501 144.152L70.7501 144.152L70.7501 146.154L71.2501 146.154ZM71.2501 142.149L71.2501 140.147L70.7501 140.147L70.7501 142.149L71.2501 142.149ZM71.2501 138.145L71.2501 136.143L70.7501 136.143L70.7501 138.145L71.2501 138.145ZM71.2501 134.141L71.2501 132.139L70.7501 132.139L70.7501 134.141L71.2501 134.141ZM71.2501 130.137L71.2501 128.135L70.7501 128.135L70.7501 130.137L71.2501 130.137ZM71.2501 126.133L71.2501 124.13L70.7501 124.13L70.7501 126.133L71.2501 126.133ZM71.2501 122.128L71.2501 120.126L70.7501 120.126L70.7501 122.128L71.2501 122.128ZM71.2501 118.124L71.2501 116.122L70.7501 116.122L70.7501 118.124L71.2501 118.124ZM71.2501 114.12L71.2501 112.118L70.7501 112.118L70.7501 114.12L71.2501 114.12ZM71.2501 110.116L71.2501 108.114L70.7501 108.114L70.7501 110.116L71.2501 110.116ZM71.2501 106.112L71.2501 104.109L70.7501 104.109L70.7501 106.112L71.2501 106.112ZM71.2501 102.107L71.2501 100.105L70.7501 100.105L70.7501 102.107L71.2501 102.107ZM71.2501 98.1031L71.2501 96.101L70.7501 96.101L70.7501 98.1031L71.2501 98.1031ZM71.2501 94.0989L71.2501 92.0968L70.7501 92.0968L70.7501 94.0989L71.2501 94.0989ZM71.2501 90.0947L71.2501 88.0926L70.7501 88.0926L70.7501 90.0947L71.2501 90.0947ZM71.2501 86.0905L71.2501 84.0884L70.7501 84.0884L70.7501 86.0905L71.2501 86.0905ZM71.2501 82.0863L71.2501 80.0842L70.7501 80.0842L70.7501 82.0863L71.2501 82.0863ZM71.2501 78.0821L71.2501 76.08L70.7501 76.08L70.7501 78.0821L71.2501 78.0821ZM71.2501 74.0779L71.2501 72.0757L70.7501 72.0757L70.7501 74.0779L71.2501 74.0779ZM71.2501 70.0736L71.2501 68.0715L70.7501 68.0715L70.7501 70.0736L71.2501 70.0736ZM71.2501 66.0694L71.2501 64.0673L70.7501 64.0673L70.7501 66.0694L71.2501 66.0694ZM71.2501 62.0652L71.2501 60.0631L70.7501 60.0631L70.7501 62.0652L71.2501 62.0652ZM71.2501 58.061L71.2501 56.0589L70.7501 56.0589L70.7501 58.061L71.2501 58.061ZM71.2501 54.0568L71.2501 52.0547L70.7501 52.0547L70.7501 54.0568L71.2501 54.0568ZM71.2501 50.0526L71.2501 48.0505L70.7501 48.0505L70.7501 50.0526L71.2501 50.0526ZM71.2501 46.0484L71.2501 44.0463L70.7501 44.0463L70.7501 46.0484L71.2501 46.0484ZM71.2501 42.0442L71.2501 40.0421L70.7501 40.0421L70.7501 42.0442L71.2501 42.0442ZM71.2501 38.0399L71.2501 36.0378L70.7501 36.0378L70.7501 38.0399L71.2501 38.0399ZM71.2501 34.0357L71.2501 32.0336L70.7501 32.0336L70.7501 34.0357L71.2501 34.0357ZM71.2501 30.0315L71.2501 28.0294L70.7501 28.0294L70.7501 30.0315L71.2501 30.0315ZM71.2501 26.0273L71.2501 24.0252L70.7501 24.0252L70.7501 26.0273L71.2501 26.0273ZM71.2501 22.0231L71.2501 20.021L70.7501 20.021L70.7501 22.0231L71.2501 22.0231ZM71.2501 18.0189L71.2501 16.0168L70.7501 16.0168L70.7501 18.0189L71.2501 18.0189ZM71.2501 14.0147L71.2501 12.0126L70.7501 12.0126L70.7501 14.0147L71.2501 14.0147ZM71.2501 10.0105L71.2501 8.00836L70.7501 8.00836L70.7501 10.0105L71.2501 10.0105ZM71.2501 6.00626L71.2501 4.00415L70.7501 4.00415L70.7501 6.00626L71.2501 6.00626ZM71.2501 2.00204L71.2501 1.00006L70.7501 1.00006L70.7501 2.00204L71.2501 2.00204ZM71.3536 0.646515C71.1583 0.451233 70.8418 0.451233 70.6465 0.646515L67.4645 3.82849C67.2693 4.02374 67.2693 4.34033 67.4645 4.53558C67.6598 4.73087 67.9764 4.73087 68.1716 4.53558L71.0001 1.70715L73.8285 4.53558C74.0237 4.73087 74.3403 4.73087 74.5356 4.53558C74.7308 4.34033 74.7308 4.02374 74.5356 3.82849L71.3536 0.646515ZM71.5001 449.473L71.5001 448.472L70.5001 448.472L70.5001 449.473L71.5001 449.473ZM71.5001 446.47L71.5001 444.468L70.5001 444.468L70.5001 446.47L71.5001 446.47ZM71.5001 442.466L71.5001 440.464L70.5001 440.464L70.5001 442.466L71.5001 442.466ZM71.5001 438.462L71.5001 436.459L70.5001 436.459L70.5001 438.462L71.5001 438.462ZM71.5001 434.457L71.5001 432.455L70.5001 432.455L70.5001 434.457L71.5001 434.457ZM71.5001 430.453L71.5001 428.451L70.5001 428.451L70.5001 430.453L71.5001 430.453ZM71.5001 426.449L71.5001 424.447L70.5001 424.447L70.5001 426.449L71.5001 426.449ZM71.5001 422.445L71.5001 420.443L70.5001 420.443L70.5001 422.445L71.5001 422.445ZM71.5001 418.44L71.5001 416.438L70.5001 416.438L70.5001 418.44L71.5001 418.44ZM71.5001 414.436L71.5001 412.434L70.5001 412.434L70.5001 414.436L71.5001 414.436ZM71.5001 410.432L71.5001 408.43L70.5001 408.43L70.5001 410.432L71.5001 410.432ZM71.5001 406.428L71.5001 404.426L70.5001 404.426L70.5001 406.428L71.5001 406.428ZM71.5001 402.424L71.5001 400.421L70.5001 400.421L70.5001 402.424L71.5001 402.424ZM71.5001 398.419L71.5001 396.417L70.5001 396.417L70.5001 398.419L71.5001 398.419ZM71.5001 394.415L71.5001 392.413L70.5001 392.413L70.5001 394.415L71.5001 394.415ZM71.5001 390.411L71.5001 388.409L70.5001 388.409L70.5001 390.411L71.5001 390.411ZM71.5001 386.407L71.5001 384.404L70.5001 384.404L70.5001 386.407L71.5001 386.407ZM71.5001 382.402L71.5001 380.4L70.5001 380.4L70.5001 382.402L71.5001 382.402ZM71.5001 378.398L71.5001 376.396L70.5001 376.396L70.5001 378.398L71.5001 378.398ZM71.5001 374.394L71.5001 372.392L70.5001 372.392L70.5001 374.394L71.5001 374.394ZM71.5001 370.39L71.5001 368.388L70.5001 368.388L70.5001 370.39L71.5001 370.39ZM71.5001 366.385L71.5001 364.383L70.5001 364.383L70.5001 366.385L71.5001 366.385ZM71.5001 362.381L71.5001 360.379L70.5001 360.379L70.5001 362.381L71.5001 362.381ZM71.5001 358.377L71.5001 356.375L70.5001 356.375L70.5001 358.377L71.5001 358.377ZM71.5001 354.373L71.5001 352.371L70.5001 352.371L70.5001 354.373L71.5001 354.373ZM71.5001 350.369L71.5001 348.366L70.5001 348.366L70.5001 350.369L71.5001 350.369ZM71.5001 346.364L71.5001 344.362L70.5001 344.362L70.5001 346.364L71.5001 346.364ZM71.5001 342.36L71.5001 340.358L70.5001 340.358L70.5001 342.36L71.5001 342.36ZM71.5001 338.356L71.5001 336.354L70.5001 336.354L70.5001 338.356L71.5001 338.356ZM71.5001 334.352L71.5001 332.35L70.5001 332.35L70.5001 334.352L71.5001 334.352ZM71.5001 330.347L71.5001 328.345L70.5001 328.345L70.5001 330.347L71.5001 330.347ZM71.5001 326.343L71.5001 324.341L70.5001 324.341L70.5001 326.343L71.5001 326.343ZM71.5001 322.339L71.5001 320.337L70.5001 320.337L70.5001 322.339L71.5001 322.339ZM71.5001 318.335L71.5001 316.333L70.5001 316.333L70.5001 318.335L71.5001 318.335ZM71.5001 314.331L71.5001 312.328L70.5001 312.328L70.5001 314.331L71.5001 314.331ZM71.5001 310.326L71.5001 308.324L70.5001 308.324L70.5001 310.326L71.5001 310.326ZM71.5001 306.322L71.5001 304.32L70.5001 304.32L70.5001 306.322L71.5001 306.322ZM71.5001 302.318L71.5001 300.316L70.5001 300.316L70.5001 302.318L71.5001 302.318ZM71.5001 298.314L71.5001 296.312L70.5001 296.312L70.5001 298.314L71.5001 298.314ZM71.5001 294.309L71.5001 292.307L70.5001 292.307L70.5001 294.309L71.5001 294.309ZM71.5001 290.305L71.5001 288.303L70.5001 288.303L70.5001 290.305L71.5001 290.305ZM71.5001 286.301L71.5001 284.299L70.5001 284.299L70.5001 286.301L71.5001 286.301ZM71.5001 282.297L71.5001 280.295L70.5001 280.295L70.5001 282.297L71.5001 282.297ZM71.5001 278.293L71.5001 276.291L70.5001 276.291L70.5001 278.293L71.5001 278.293ZM71.5001 274.288L71.5001 272.286L70.5001 272.286L70.5001 274.288L71.5001 274.288ZM71.5001 270.284L71.5001 268.282L70.5001 268.282L70.5001 270.284L71.5001 270.284ZM71.5001 266.28L71.5001 264.278L70.5001 264.278L70.5001 266.28L71.5001 266.28ZM71.5001 262.276L71.5001 260.274L70.5001 260.274L70.5001 262.276L71.5001 262.276ZM71.5001 258.272L71.5001 256.269L70.5001 256.269L70.5001 258.272L71.5001 258.272ZM71.5001 254.267L71.5001 252.265L70.5001 252.265L70.5001 254.267L71.5001 254.267ZM71.5001 250.263L71.5001 248.261L70.5001 248.261L70.5001 250.263L71.5001 250.263ZM71.5001 246.259L71.5001 244.257L70.5001 244.257L70.5001 246.259L71.5001 246.259ZM71.5001 242.255L71.5001 240.253L70.5001 240.253L70.5001 242.255L71.5001 242.255ZM71.5001 238.251L71.5001 236.248L70.5001 236.248L70.5001 238.251L71.5001 238.251ZM71.5001 234.246L71.5001 232.244L70.5001 232.244L70.5001 234.246L71.5001 234.246ZM71.5001 230.242L71.5001 228.24L70.5001 228.24L70.5001 230.242L71.5001 230.242ZM71.5001 226.238L71.5001 224.236L70.5001 224.236L70.5001 226.238L71.5001 226.238ZM71.5001 222.234L71.5001 220.232L70.5001 220.232L70.5001 222.234L71.5001 222.234ZM71.5001 218.229L71.5001 216.227L70.5001 216.227L70.5001 218.229L71.5001 218.229ZM71.5001 214.225L71.5001 212.223L70.5001 212.223L70.5001 214.225L71.5001 214.225ZM71.5001 210.221L71.5001 208.219L70.5001 208.219L70.5001 210.221L71.5001 210.221ZM71.5001 206.217L71.5001 204.215L70.5001 204.215L70.5001 206.217L71.5001 206.217ZM71.5001 202.213L71.5001 200.211L70.5001 200.211L70.5001 202.213L71.5001 202.213ZM71.5001 198.208L71.5001 196.206L70.5001 196.206L70.5001 198.208L71.5001 198.208ZM71.5001 194.204L71.5001 192.202L70.5001 192.202L70.5001 194.204L71.5001 194.204ZM71.5001 190.2L71.5001 188.198L70.5001 188.198L70.5001 190.2L71.5001 190.2ZM71.5001 186.196L71.5001 184.194L70.5001 184.194L70.5001 186.196L71.5001 186.196ZM71.5001 182.192L71.5001 180.189L70.5001 180.189L70.5001 182.192L71.5001 182.192ZM71.5001 178.187L71.5001 176.185L70.5001 176.185L70.5001 178.187L71.5001 178.187ZM71.5001 174.183L71.5001 172.181L70.5001 172.181L70.5001 174.183L71.5001 174.183ZM71.5001 170.179L71.5001 168.177L70.5001 168.177L70.5001 170.179L71.5001 170.179ZM71.5001 166.175L71.5001 164.173L70.5001 164.173L70.5001 166.175L71.5001 166.175ZM71.5001 162.171L71.5001 160.168L70.5001 160.168L70.5001 162.171L71.5001 162.171ZM71.5001 158.166L71.5001 156.164L70.5001 156.164L70.5001 158.166L71.5001 158.166ZM71.5001 154.162L71.5001 152.16L70.5001 152.16L70.5001 154.162L71.5001 154.162ZM71.5001 150.158L71.5001 148.156L70.5001 148.156L70.5001 150.158L71.5001 150.158ZM71.5001 146.154L71.5001 144.152L70.5001 144.152L70.5001 146.154L71.5001 146.154ZM71.5001 142.149L71.5001 140.147L70.5001 140.147L70.5001 142.149L71.5001 142.149ZM71.5001 138.145L71.5001 136.143L70.5001 136.143L70.5001 138.145L71.5001 138.145ZM71.5001 134.141L71.5001 132.139L70.5001 132.139L70.5001 134.141L71.5001 134.141ZM71.5001 130.137L71.5001 128.135L70.5001 128.135L70.5001 130.137L71.5001 130.137ZM71.5001 126.133L71.5001 124.13L70.5001 124.13L70.5001 126.133L71.5001 126.133ZM71.5001 122.128L71.5001 120.126L70.5001 120.126L70.5001 122.128L71.5001 122.128ZM71.5001 118.124L71.5001 116.122L70.5001 116.122L70.5001 118.124L71.5001 118.124ZM71.5001 114.12L71.5001 112.118L70.5001 112.118L70.5001 114.12L71.5001 114.12ZM71.5001 110.116L71.5001 108.114L70.5001 108.114L70.5001 110.116L71.5001 110.116ZM71.5001 106.112L71.5001 104.109L70.5001 104.109L70.5001 106.112L71.5001 106.112ZM71.5001 102.107L71.5001 100.105L70.5001 100.105L70.5001 102.107L71.5001 102.107ZM71.5001 98.1031L71.5001 96.101L70.5001 96.101L70.5001 98.1031L71.5001 98.1031ZM71.5001 94.0989L71.5001 92.0968L70.5001 92.0968L70.5001 94.0989L71.5001 94.0989ZM71.5001 90.0947L71.5001 88.0926L70.5001 88.0926L70.5001 90.0947L71.5001 90.0947ZM71.5001 86.0905L71.5001 84.0884L70.5001 84.0884L70.5001 86.0905L71.5001 86.0905ZM71.5001 82.0863L71.5001 80.0842L70.5001 80.0842L70.5001 82.0863L71.5001 82.0863ZM71.5001 78.0821L71.5001 76.08L70.5001 76.08L70.5001 78.0821L71.5001 78.0821ZM71.5001 74.0779L71.5001 72.0757L70.5001 72.0757L70.5001 74.0779L71.5001 74.0779ZM71.5001 70.0736L71.5001 68.0715L70.5001 68.0715L70.5001 70.0736L71.5001 70.0736ZM71.5001 66.0694L71.5001 64.0673L70.5001 64.0673L70.5001 66.0694L71.5001 66.0694ZM71.5001 62.0652L71.5001 60.0631L70.5001 60.0631L70.5001 62.0652L71.5001 62.0652ZM71.5001 58.061L71.5001 56.0589L70.5001 56.0589L70.5001 58.061L71.5001 58.061ZM71.5001 54.0568L71.5001 52.0547L70.5001 52.0547L70.5001 54.0568L71.5001 54.0568ZM71.5001 50.0526L71.5001 48.0505L70.5001 48.0505L70.5001 50.0526L71.5001 50.0526ZM71.5001 46.0484L71.5001 44.0463L70.5001 44.0463L70.5001 46.0484L71.5001 46.0484ZM71.5001 42.0442L71.5001 40.0421L70.5001 40.0421L70.5001 42.0442L71.5001 42.0442ZM71.5001 38.0399L71.5001 36.0378L70.5001 36.0378L70.5001 38.0399L71.5001 38.0399ZM71.5001 34.0357L71.5001 32.0336L70.5001 32.0336L70.5001 34.0357L71.5001 34.0357ZM71.5001 30.0315L71.5001 28.0294L70.5001 28.0294L70.5001 30.0315L71.5001 30.0315ZM71.5001 26.0273L71.5001 24.0252L70.5001 24.0252L70.5001 26.0273L71.5001 26.0273ZM71.5001 22.0231L71.5001 20.021L70.5001 20.021L70.5001 22.0231L71.5001 22.0231ZM71.5001 18.0189L71.5001 16.0168L70.5001 16.0168L70.5001 18.0189L71.5001 18.0189ZM71.5001 14.0147L71.5001 12.0126L70.5001 12.0126L70.5001 14.0147L71.5001 14.0147ZM71.5001 10.0105L71.5001 8.00836L70.5001 8.00836L70.5001 10.0105L71.5001 10.0105ZM71.5001 6.00626L71.5001 4.00415L70.5001 4.00415L70.5001 6.00626L71.5001 6.00626ZM71.5001 2.00204L71.5001 1.00006L70.5001 1.00006L70.5001 2.00204L71.5001 2.00204Z" fill="#020034"/>
<path d="M79.6935 447.789C79.8432 448.395 79.9461 449.024 79.9974 449.67L79.499 449.71C79.5229 450.011 79.5351 450.316 79.5351 450.624C79.5351 450.932 79.5229 451.237 79.499 451.538L79.9974 451.578C79.9461 452.224 79.8432 452.853 79.6935 453.46L79.2081 453.34C79.0598 453.941 78.8635 454.518 78.6247 455.065L79.083 455.265C78.8246 455.857 78.5184 456.417 78.1701 456.938L77.7545 456.66C77.4131 457.17 77.0299 457.641 76.6113 458.064L76.9668 458.415C76.5144 458.873 76.0219 459.279 75.496 459.626L75.2206 459.208C74.7175 459.541 74.1834 459.815 73.6251 460.023L73.8003 460.492C73.2083 460.713 72.5894 460.866 71.9507 460.943L71.8911 460.447C71.5979 460.482 71.3002 460.5 70.9987 460.5C70.6972 460.5 70.3995 460.482 70.1064 460.447L70.0467 460.943C69.408 460.866 68.7892 460.713 68.1971 460.492L68.3723 460.023C67.8141 459.815 67.2799 459.541 66.7768 459.208L66.5014 459.626C65.9756 459.279 65.483 458.873 65.0306 458.415L65.3861 458.064C64.9675 457.641 64.5843 457.17 64.2429 456.66L63.8273 456.938C63.479 456.417 63.1728 455.857 62.9144 455.265L63.3727 455.065C63.1339 454.518 62.9377 453.941 62.7893 453.34L62.3039 453.46C62.1542 452.853 62.0513 452.224 62 451.578L62.4984 451.538C62.4746 451.237 62.4623 450.932 62.4623 450.624C62.4623 450.316 62.4746 450.011 62.4984 449.71L62 449.67C62.0513 449.024 62.1542 448.395 62.3039 447.789L62.7893 447.908C62.9377 447.308 63.1339 446.731 63.3727 446.183L62.9144 445.983C63.1728 445.391 63.479 444.831 63.8273 444.31L64.2429 444.588C64.5843 444.078 64.9675 443.608 65.3861 443.185L65.0306 442.833C65.483 442.376 65.9756 441.97 66.5014 441.622L66.7768 442.04C67.2799 441.708 67.8141 441.434 68.3723 441.225L68.1971 440.756C68.7892 440.535 69.408 440.382 70.0467 440.305L70.1064 440.801C70.3995 440.766 70.6972 440.748 70.9987 440.748C71.3002 440.748 71.5979 440.766 71.8911 440.801L71.9507 440.305C72.5894 440.382 73.2083 440.535 73.8003 440.756L73.6251 441.225C74.1834 441.434 74.7175 441.708 75.2206 442.04L75.496 441.622C76.0219 441.97 76.5144 442.376 76.9668 442.833L76.6113 443.185C77.0299 443.608 77.4131 444.078 77.7545 444.588L78.1701 444.31C78.5184 444.831 78.8246 445.391 79.083 445.983L78.6247 446.183C78.8635 446.731 79.0598 447.308 79.2081 447.908L79.6935 447.789Z" stroke="#9C3E29" stroke-dasharray="2 2"/>
<path d="M86.8401 429.545C86.9708 430.242 87.0597 430.954 87.1041 431.678L86.6051 431.709C86.6262 432.054 86.637 432.402 86.637 432.753C86.637 433.105 86.6262 433.453 86.6051 433.798L87.1041 433.829C87.0597 434.553 86.9708 435.265 86.8401 435.962L86.3487 435.87C86.219 436.56 86.0471 437.236 85.8359 437.892L86.3118 438.045C86.0905 438.733 85.8273 439.4 85.5253 440.045L85.0725 439.833C84.7756 440.466 84.4401 441.077 84.0691 441.661L84.4912 441.929C84.1053 442.537 83.6822 443.117 83.2252 443.666L82.8409 443.346C82.3948 443.882 81.9156 444.387 81.4065 444.858L81.7461 445.225C81.2194 445.712 80.6616 446.164 80.0763 446.578L79.7879 446.169C79.2209 446.569 78.6274 446.932 78.0107 447.253L78.2417 447.697C77.6082 448.027 76.9508 448.315 76.2729 448.558L76.1044 448.087C75.4553 448.319 74.7868 448.509 74.1022 448.651L74.2043 449.141C73.51 449.286 72.7995 449.384 72.076 449.434L72.042 448.935C71.6979 448.958 71.3506 448.97 71.0006 448.97C70.6506 448.97 70.3034 448.958 69.9592 448.935L69.9252 449.434C69.2017 449.384 68.4913 449.286 67.7969 449.141L67.8991 448.651C67.2145 448.509 66.546 448.319 65.8969 448.087L65.7283 448.558C65.0505 448.315 64.3931 448.027 63.7595 447.697L63.9906 447.253C63.3739 446.932 62.7803 446.569 62.2133 446.169L61.925 446.578C61.3396 446.164 60.7818 445.712 60.2551 445.225L60.5947 444.858C60.0856 444.387 59.6064 443.882 59.1604 443.346L58.7761 443.666C58.3191 443.117 57.896 442.537 57.5101 441.929L57.9322 441.661C57.5612 441.077 57.2256 440.466 56.9287 439.833L56.476 440.045C56.1739 439.4 55.9107 438.733 55.6894 438.045L56.1654 437.892C55.9541 437.236 55.7822 436.56 55.6526 435.87L55.1611 435.962C55.0305 435.265 54.9415 434.553 54.8971 433.829L55.3962 433.798C55.375 433.453 55.3643 433.105 55.3643 432.753C55.3643 432.402 55.375 432.054 55.3962 431.709L54.8971 431.678C54.9415 430.954 55.0305 430.242 55.1611 429.545L55.6526 429.637C55.7822 428.947 55.9541 428.271 56.1654 427.615L55.6894 427.462C55.9107 426.774 56.1739 426.107 56.476 425.462L56.9287 425.674C57.2256 425.041 57.5612 424.43 57.9322 423.846L57.5101 423.578C57.896 422.97 58.3191 422.39 58.7761 421.841L59.1604 422.161C59.6064 421.625 60.0856 421.12 60.5947 420.649L60.2551 420.282C60.7818 419.795 61.3396 419.343 61.925 418.929L62.2133 419.338C62.7803 418.938 63.3739 418.575 63.9906 418.254L63.7595 417.81C64.3931 417.48 65.0505 417.192 65.7283 416.949L65.8969 417.42C66.546 417.188 67.2144 416.998 67.8991 416.856L67.7969 416.366C68.4913 416.221 69.2017 416.122 69.9252 416.073L69.9592 416.572C70.3034 416.549 70.6506 416.537 71.0006 416.537C71.3506 416.537 71.6979 416.549 72.042 416.572L72.076 416.073C72.7995 416.122 73.51 416.221 74.2043 416.366L74.1022 416.856C74.7868 416.998 75.4552 417.188 76.1044 417.42L76.2729 416.949C76.9508 417.192 77.6082 417.48 78.2417 417.81L78.0107 418.254C78.6274 418.575 79.2209 418.938 79.7879 419.338L80.0763 418.929C80.6616 419.343 81.2194 419.795 81.7461 420.282L81.4065 420.649C81.9156 421.12 82.3948 421.625 82.8409 422.161L83.2252 421.841C83.6822 422.39 84.1053 422.97 84.4912 423.578L84.0691 423.846C84.4401 424.43 84.7756 425.041 85.0725 425.674L85.5253 425.462C85.8273 426.107 86.0905 426.774 86.3118 427.462L85.8359 427.615C86.0471 428.271 86.219 428.947 86.3487 429.637L86.8401 429.545Z" stroke="#CE542E" stroke-dasharray="2 2"/>
<path d="M94.0378 400.852C94.1255 401.527 94.1847 402.212 94.2143 402.904L93.7148 402.925C93.7291 403.26 93.7363 403.596 93.7363 403.934C93.7363 404.272 93.7291 404.609 93.7148 404.943L94.2143 404.964C94.1847 405.656 94.1255 406.341 94.0378 407.016L93.5419 406.952C93.4548 407.623 93.339 408.285 93.1959 408.937L93.6842 409.044C93.5361 409.718 93.3592 410.382 93.1551 411.033L92.678 410.883C92.476 411.527 92.2467 412.159 91.9915 412.778L92.4537 412.969C92.1908 413.606 91.9011 414.228 91.5857 414.836L91.142 414.605C90.8316 415.203 90.4959 415.786 90.1364 416.352L90.5584 416.62C90.1897 417.2 89.7964 417.763 89.38 418.308L88.9828 418.004C88.5742 418.538 88.1428 419.054 87.6902 419.55L88.0596 419.887C87.5967 420.395 87.1121 420.881 86.6072 421.347L86.2685 420.979C85.7745 421.434 85.2606 421.868 84.7284 422.279L85.0339 422.674C84.4913 423.093 83.9299 423.489 83.3512 423.86L83.0813 423.44C82.5169 423.802 81.9357 424.14 81.3393 424.452L81.5714 424.895C80.9652 425.213 80.3434 425.505 79.7076 425.77L79.5153 425.308C78.8976 425.566 78.2665 425.797 77.6231 426L77.774 426.477C77.1232 426.683 76.4602 426.862 75.7863 427.011L75.678 426.523C75.0267 426.667 74.3649 426.784 73.6941 426.872L73.759 427.368C73.0838 427.456 72.3995 427.516 71.7075 427.546L71.6859 427.047C71.3515 427.061 71.0152 427.068 70.6772 427.068C70.3392 427.068 70.0029 427.061 69.6685 427.047L69.6469 427.546C68.9549 427.516 68.2706 427.456 67.5953 427.368L67.6603 426.872C66.9895 426.784 66.3277 426.667 65.6764 426.523L65.5681 427.011C64.8942 426.862 64.2312 426.683 63.5804 426.477L63.7313 426C63.0879 425.797 62.4568 425.566 61.8391 425.308L61.6468 425.77C61.011 425.505 60.3892 425.213 59.783 424.895L60.0151 424.452C59.4186 424.14 58.8375 423.802 58.2731 423.44L58.0032 423.86C57.4245 423.489 56.8631 423.093 56.3204 422.674L56.626 422.279C56.0938 421.868 55.5799 421.434 55.0859 420.979L54.7471 421.347C54.2423 420.881 53.7577 420.395 53.2948 419.887L53.6642 419.55C53.2115 419.054 52.7802 418.538 52.3716 418.004L51.9744 418.308C51.558 417.763 51.1647 417.2 50.796 416.62L51.218 416.352C50.8585 415.786 50.5228 415.203 50.2124 414.605L49.7686 414.836C49.4533 414.228 49.1636 413.606 48.9007 412.969L49.3629 412.778C49.1076 412.16 48.8784 411.527 48.6764 410.883L48.1993 411.033C47.9951 410.382 47.8183 409.718 47.6702 409.044L48.1585 408.937C48.0154 408.285 47.8996 407.623 47.8124 406.952L47.3166 407.016C47.2289 406.341 47.1697 405.656 47.1401 404.964L47.6396 404.943C47.6253 404.609 47.6181 404.272 47.6181 403.934C47.6181 403.596 47.6253 403.26 47.6396 402.925L47.1401 402.904C47.1697 402.212 47.2289 401.527 47.3166 400.852L47.8124 400.916C47.8996 400.245 48.0154 399.583 48.1585 398.932L47.6702 398.824C47.8183 398.15 47.9951 397.487 48.1993 396.835L48.6764 396.985C48.8784 396.341 49.1076 395.709 49.3629 395.09L48.9007 394.899C49.1636 394.263 49.4533 393.64 49.7686 393.032L50.2124 393.263C50.5228 392.665 50.8585 392.082 51.218 391.517L50.796 391.248C51.1647 390.668 51.558 390.105 51.9744 389.56L52.3716 389.864C52.7802 389.33 53.2115 388.814 53.6642 388.318L53.2948 387.981C53.7577 387.474 54.2423 386.987 54.7471 386.522L55.0859 386.889C55.5799 386.434 56.0938 386.001 56.626 385.59L56.3204 385.194C56.8631 384.775 57.4245 384.379 58.0031 384.008L58.2731 384.429C58.8375 384.067 59.4186 383.729 60.0151 383.416L59.783 382.973C60.3892 382.655 61.011 382.363 61.6468 382.098L61.8391 382.56C62.4568 382.303 63.0879 382.071 63.7313 381.868L63.5804 381.391C64.2312 381.185 64.8942 381.007 65.5681 380.857L65.6764 381.345C66.3277 381.201 66.9895 381.084 67.6603 380.996L67.5953 380.5C68.2706 380.412 68.9549 380.352 69.6469 380.322L69.6685 380.822C70.0029 380.807 70.3392 380.8 70.6772 380.8C71.0152 380.8 71.3515 380.807 71.6859 380.822L71.7075 380.322C72.3995 380.352 73.0838 380.412 73.759 380.5L73.6941 380.996C74.3649 381.084 75.0267 381.201 75.678 381.345L75.7863 380.857C76.4602 381.007 77.1232 381.185 77.774 381.391L77.6231 381.868C78.2665 382.071 78.8976 382.303 79.5153 382.56L79.7076 382.098C80.3434 382.363 80.9652 382.655 81.5714 382.973L81.3393 383.416C81.9357 383.729 82.5169 384.067 83.0813 384.429L83.3512 384.008C83.9299 384.379 84.4913 384.775 85.0339 385.194L84.7284 385.59C85.2606 386.001 85.7744 386.434 86.2685 386.889L86.6072 386.522C87.1121 386.987 87.5967 387.474 88.0596 387.981L87.6902 388.318C88.1428 388.814 88.5742 389.33 88.9828 389.864L89.38 389.56C89.7964 390.105 90.1897 390.668 90.5584 391.248L90.1364 391.517C90.4959 392.082 90.8316 392.665 91.142 393.263L91.5857 393.032C91.9011 393.64 92.1908 394.263 92.4537 394.899L91.9915 395.09C92.2467 395.709 92.476 396.341 92.678 396.985L93.1551 396.835C93.3592 397.487 93.5361 398.15 93.6842 398.824L93.1959 398.932C93.339 399.583 93.4548 400.245 93.5419 400.916L94.0378 400.852Z" stroke="#DA8344" stroke-dasharray="2 2"/>
<path d="M104.429 369.209C104.488 369.873 104.528 370.544 104.548 371.219L104.048 371.233C104.058 371.564 104.063 371.895 104.063 372.228C104.063 372.561 104.058 372.892 104.048 373.223L104.548 373.237C104.528 373.913 104.488 374.583 104.429 375.247L103.931 375.203C103.872 375.865 103.794 376.522 103.696 377.172L104.191 377.246C104.091 377.913 103.971 378.574 103.833 379.228L103.344 379.125C103.206 379.775 103.049 380.418 102.874 381.053L103.356 381.186C103.177 381.835 102.979 382.477 102.762 383.11L102.289 382.948C102.074 383.576 101.841 384.195 101.591 384.804L102.053 384.995C101.797 385.617 101.523 386.23 101.232 386.833L100.782 386.615C100.493 387.212 100.187 387.799 99.8642 388.375L100.3 388.619C99.9717 389.206 99.6258 389.782 99.2635 390.346L98.8428 390.076C98.4849 390.633 98.1108 391.178 97.7211 391.712L98.1248 392.007C97.7283 392.549 97.316 393.08 96.8884 393.597L96.5031 393.278C96.0813 393.788 95.6444 394.285 95.1933 394.768L95.5587 395.109C95.1004 395.6 94.6276 396.077 94.1408 396.54L93.7965 396.177C93.317 396.633 92.8238 397.074 92.3176 397.5L92.6395 397.882C92.126 398.314 91.5994 398.731 91.0602 399.132L90.7619 398.731C90.2316 399.125 89.6891 399.503 89.135 399.865L89.4085 400.284C88.8472 400.651 88.2741 401.001 87.6901 401.334L87.4424 400.9C86.8688 401.227 86.2844 401.537 85.6899 401.829L85.9107 402.278C85.3096 402.574 84.6982 402.852 84.0774 403.112L83.8844 402.65C83.2762 402.905 82.6587 403.141 82.0326 403.359L82.1969 403.831C81.5649 404.051 80.9243 404.253 80.2756 404.435L80.1405 403.953C79.5063 404.131 78.8642 404.291 78.2151 404.431L78.3204 404.919C77.6668 405.06 77.0061 405.182 76.3388 405.283L76.2636 404.789C75.6137 404.888 74.9575 404.968 74.2956 405.028L74.3407 405.526C73.6763 405.586 73.0062 405.626 72.3311 405.647L72.3161 405.147C71.9859 405.157 71.6544 405.162 71.3217 405.162C70.9891 405.162 70.6576 405.157 70.3274 405.147L70.3124 405.647C69.6373 405.626 68.9672 405.586 68.3028 405.526L68.3479 405.028C67.686 404.968 67.0298 404.888 66.3799 404.789L66.3046 405.283C65.6374 405.182 64.9766 405.06 64.323 404.919L64.4284 404.431C63.7792 404.291 63.1372 404.131 62.5029 403.953L62.3678 404.435C61.7192 404.253 61.0785 404.051 60.4465 403.831L60.6109 403.359C59.9847 403.141 59.3673 402.905 58.759 402.65L58.5661 403.112C57.9452 402.852 57.3339 402.574 56.7327 402.278L56.9535 401.829C56.359 401.537 55.7746 401.227 55.201 400.9L54.9534 401.334C54.3693 401.001 53.7962 400.651 53.2349 400.284L53.5084 399.865C52.9543 399.503 52.4118 399.125 51.8815 398.731L51.5832 399.132C51.0441 398.731 50.5174 398.314 50.0039 397.882L50.3258 397.5C49.8197 397.074 49.3265 396.633 48.847 396.177L48.5026 396.54C48.0159 396.077 47.543 395.6 47.0847 395.109L47.4502 394.768C46.999 394.285 46.5622 393.788 46.1403 393.278L45.755 393.597C45.3275 393.08 44.9151 392.549 44.5186 392.007L44.9224 391.712C44.5326 391.178 44.1585 390.633 43.8006 390.076L43.3799 390.346C43.0176 389.782 42.6718 389.206 42.343 388.619L42.7792 388.375C42.4565 387.799 42.1505 387.212 41.8619 386.615L41.4118 386.833C41.1202 386.23 40.8461 385.617 40.5902 384.995L41.0526 384.804C40.802 384.195 40.569 383.576 40.3543 382.948L39.8812 383.11C39.6647 382.477 39.4665 381.835 39.2873 381.186L39.7693 381.053C39.5942 380.418 39.4374 379.775 39.2998 379.125L38.8106 379.228C38.6721 378.574 38.5526 377.913 38.4527 377.246L38.9472 377.172C38.8499 376.522 38.7715 375.865 38.7125 375.203L38.2145 375.247C38.1554 374.583 38.1156 373.913 38.0957 373.237L38.5955 373.223C38.5857 372.892 38.5808 372.561 38.5808 372.228C38.5808 371.895 38.5857 371.564 38.5955 371.233L38.0957 371.219C38.1156 370.544 38.1554 369.873 38.2145 369.209L38.7125 369.253C38.7715 368.591 38.8499 367.934 38.9472 367.284L38.4527 367.21C38.5526 366.543 38.6721 365.882 38.8106 365.228L39.2998 365.331C39.4374 364.681 39.5942 364.038 39.7693 363.403L39.2873 363.27C39.4665 362.621 39.6647 361.979 39.8812 361.346L40.3543 361.508C40.569 360.88 40.802 360.261 41.0526 359.652L40.5902 359.461C40.8461 358.839 41.1202 358.226 41.4118 357.623L41.8619 357.841C42.1505 357.244 42.4565 356.657 42.7792 356.081L42.343 355.837C42.6718 355.25 43.0176 354.674 43.3799 354.11L43.8006 354.38C44.1585 353.823 44.5326 353.278 44.9224 352.744L44.5186 352.449C44.9151 351.907 45.3275 351.377 45.7551 350.86L46.1403 351.178C46.5622 350.668 46.999 350.171 47.4502 349.688L47.0847 349.347C47.543 348.856 48.0159 348.379 48.5026 347.917L48.847 348.279C49.3265 347.824 49.8197 347.382 50.3258 346.957L50.0039 346.574C50.5174 346.142 51.0441 345.725 51.5832 345.324L51.8815 345.725C52.4118 345.331 52.9543 344.953 53.5084 344.591L53.2349 344.172C53.7962 343.805 54.3693 343.455 54.9534 343.122L55.201 343.556C55.7746 343.229 56.359 342.919 56.9535 342.627L56.7327 342.178C57.3339 341.882 57.9452 341.604 58.5661 341.344L58.759 341.806C59.3673 341.551 59.9847 341.315 60.6109 341.097L60.4465 340.625C61.0785 340.405 61.7192 340.203 62.3678 340.021L62.5029 340.503C63.1372 340.325 63.7792 340.165 64.4284 340.025L64.323 339.537C64.9766 339.396 65.6374 339.274 66.3046 339.173L66.3799 339.667C67.0298 339.568 67.6859 339.488 68.3479 339.428L68.3028 338.93C68.9672 338.87 69.6372 338.83 70.3124 338.809L70.3274 339.309C70.6576 339.299 70.9891 339.294 71.3217 339.294C71.6544 339.294 71.9858 339.299 72.3161 339.309L72.3311 338.809C73.0062 338.83 73.6763 338.87 74.3407 338.93L74.2956 339.428C74.9575 339.488 75.6137 339.568 76.2636 339.667L76.3388 339.173C77.0061 339.274 77.6668 339.396 78.3204 339.537L78.2151 340.025C78.8642 340.165 79.5063 340.325 80.1405 340.503L80.2756 340.021C80.9243 340.203 81.5649 340.405 82.1969 340.625L82.0326 341.097C82.6587 341.315 83.2762 341.551 83.8844 341.806L84.0774 341.344C84.6982 341.604 85.3096 341.882 85.9107 342.178L85.6899 342.627C86.2844 342.919 86.8688 343.229 87.4424 343.556L87.6901 343.122C88.2741 343.455 88.8472 343.805 89.4086 344.172L89.135 344.591C89.6891 344.953 90.2316 345.331 90.7619 345.725L91.0602 345.324C91.5994 345.725 92.1261 346.142 92.6396 346.574L92.3176 346.957C92.8238 347.383 93.317 347.824 93.7965 348.279L94.1408 347.917C94.6276 348.379 95.1004 348.856 95.5587 349.347L95.1933 349.688C95.6444 350.171 96.0813 350.668 96.5031 351.178L96.8884 350.86C97.316 351.377 97.7283 351.907 98.1248 352.449L97.7211 352.744C98.1108 353.278 98.4849 353.823 98.8428 354.38L99.2635 354.11C99.6258 354.674 99.9717 355.25 100.3 355.837L99.8642 356.081C100.187 356.657 100.493 357.244 100.782 357.841L101.232 357.623C101.523 358.226 101.797 358.839 102.053 359.461L101.591 359.652C101.841 360.261 102.074 360.88 102.289 361.508L102.762 361.346C102.979 361.979 103.177 362.621 103.356 363.27L102.874 363.403C103.049 364.038 103.206 364.681 103.344 365.331L103.833 365.228C103.971 365.882 104.091 366.543 104.191 367.21L103.696 367.284C103.794 367.934 103.872 368.591 103.931 369.253L104.429 369.209Z" stroke="#E1BB59" stroke-dasharray="2 2"/>
<path d="M113.482 323.614C113.534 324.292 113.569 324.974 113.587 325.661L113.087 325.674C113.096 326.011 113.1 326.35 113.1 326.689C113.1 327.028 113.096 327.367 113.087 327.704L113.587 327.717C113.569 328.404 113.534 329.086 113.482 329.764L112.983 329.726C112.931 330.402 112.861 331.073 112.775 331.739L113.271 331.803C113.182 332.484 113.077 333.159 112.954 333.829L112.462 333.739C112.34 334.405 112.201 335.065 112.046 335.72L112.532 335.835C112.374 336.502 112.198 337.163 112.007 337.817L111.527 337.676C111.336 338.325 111.129 338.967 110.907 339.603L111.378 339.768C111.152 340.414 110.909 341.053 110.65 341.684L110.187 341.495C109.931 342.12 109.659 342.738 109.371 343.347L109.823 343.561C109.532 344.179 109.224 344.79 108.902 345.392L108.461 345.156C108.142 345.751 107.808 346.338 107.46 346.916L107.888 347.174C107.535 347.76 107.167 348.336 106.786 348.902L106.371 348.623C105.994 349.183 105.602 349.733 105.197 350.274L105.598 350.573C105.188 351.12 104.764 351.657 104.328 352.183L103.943 351.864C103.512 352.383 103.068 352.892 102.611 353.39L102.98 353.728C102.518 354.232 102.044 354.724 101.558 355.205L101.206 354.85C100.727 355.324 100.235 355.787 99.7315 356.239L100.065 356.611C99.5571 357.067 99.0373 357.511 98.5064 357.942L98.1909 357.554C97.6676 357.98 97.1333 358.394 96.5885 358.795L96.8849 359.197C96.3353 359.602 95.7752 359.994 95.205 360.373L94.9282 359.956C94.3666 360.329 93.7951 360.69 93.2142 361.037L93.4707 361.466C92.8852 361.816 92.2902 362.153 91.6862 362.476L91.4504 362.035C90.856 362.353 90.2528 362.657 89.6411 362.948L89.8556 363.399C89.2398 363.692 88.6155 363.97 87.9833 364.235L87.7904 363.773C87.1689 364.033 86.5395 364.279 85.9027 364.511L86.0736 364.981C85.4332 365.213 84.7854 365.432 84.1307 365.635L83.9823 365.158C83.3393 365.358 82.6895 365.543 82.0334 365.714L82.1593 366.198C81.5003 366.369 80.8349 366.526 80.1636 366.667L80.0606 366.178C79.4021 366.317 78.7378 366.441 78.0681 366.549L78.1482 367.043C77.4766 367.152 76.7996 367.246 76.1176 367.324L76.0605 366.827C75.3924 366.904 74.7194 366.966 74.042 367.013L74.0762 367.511C73.3978 367.558 72.7151 367.589 72.0283 367.605L72.0169 367.105C71.6789 367.113 71.34 367.117 71 367.117C70.6601 367.117 70.3211 367.113 69.9831 367.105L69.9718 367.605C69.285 367.589 68.6022 367.558 67.9239 367.511L67.9581 367.013C67.2807 366.966 66.6077 366.904 65.9396 366.827L65.8824 367.324C65.2005 367.246 64.5235 367.152 63.8518 367.043L63.9319 366.549C63.2623 366.441 62.598 366.317 61.9395 366.178L61.8365 366.667C61.1652 366.526 60.4998 366.369 59.8408 366.198L59.9666 365.714C59.3105 365.543 58.6608 365.358 58.0178 365.158L57.8693 365.635C57.2146 365.432 56.5669 365.213 55.9265 364.981L56.0973 364.511C55.4606 364.279 54.8312 364.033 54.2096 363.773L54.0167 364.235C53.3845 363.97 52.7603 363.692 52.1444 363.399L52.359 362.948C51.7473 362.657 51.144 362.353 50.5497 362.035L50.3139 362.476C49.7099 362.153 49.1149 361.816 48.5294 361.466L48.7859 361.037C48.2049 360.69 47.6334 360.329 47.0718 359.956L46.7951 360.373C46.2249 359.994 45.6647 359.602 45.1152 359.197L45.4116 358.795C44.8667 358.394 44.3325 357.98 43.8091 357.554L43.4937 357.942C42.9627 357.511 42.4429 357.067 41.9347 356.611L42.2686 356.239C41.7653 355.787 41.2735 355.324 40.7938 354.85L40.4422 355.205C39.9558 354.724 39.4816 354.232 39.0201 353.728L39.3887 353.39C38.932 352.892 38.488 352.383 38.057 351.864L37.6723 352.183C37.2356 351.657 36.8122 351.12 36.4025 350.573L36.8027 350.274C36.3978 349.733 36.0065 349.183 35.6292 348.623L35.2145 348.903C34.8327 348.336 34.465 347.76 34.112 347.174L34.5401 346.916C34.1918 346.338 33.8579 345.751 33.539 345.156L33.0982 345.392C32.7758 344.79 32.4684 344.179 32.1766 343.561L32.6288 343.347C32.3414 342.738 32.0692 342.12 31.8128 341.495L31.3501 341.685C31.0913 341.053 30.8483 340.414 30.6216 339.768L31.0934 339.603C30.8706 338.967 30.6637 338.325 30.4733 337.676L29.9935 337.817C29.8016 337.163 29.6262 336.502 29.4678 335.835L29.9542 335.72C29.7987 335.065 29.6598 334.405 29.5379 333.739L29.046 333.829C28.9234 333.159 28.8177 332.484 28.7294 331.804L29.2253 331.739C29.1388 331.073 29.0693 330.402 29.017 329.726L28.5185 329.764C28.4661 329.086 28.4308 328.404 28.4132 327.717L28.913 327.704C28.9044 327.367 28.9 327.028 28.9 326.689C28.9 326.35 28.9044 326.011 28.913 325.674L28.4132 325.661C28.4308 324.974 28.4661 324.292 28.5185 323.614L29.017 323.652C29.0693 322.976 29.1388 322.305 29.2253 321.639L28.7294 321.575C28.8177 320.894 28.9234 320.219 29.046 319.549L29.5379 319.639C29.6598 318.973 29.7987 318.313 29.9542 317.658L29.4677 317.543C29.6262 316.876 29.8016 316.215 29.9935 315.561L30.4733 315.702C30.6637 315.053 30.8706 314.411 31.0934 313.775L30.6216 313.61C30.8483 312.964 31.0913 312.325 31.3501 311.694L31.8128 311.883C32.0692 311.258 32.3414 310.64 32.6288 310.031L32.1766 309.817C32.4684 309.199 32.7758 308.588 33.0982 307.986L33.539 308.222C33.8579 307.627 34.1918 307.04 34.5401 306.462L34.112 306.204C34.465 305.619 34.8327 305.042 35.2145 304.476L35.6292 304.755C36.0065 304.195 36.3978 303.645 36.8027 303.104L36.4025 302.805C36.8122 302.258 37.2356 301.721 37.6723 301.195L38.057 301.514C38.488 300.995 38.932 300.486 39.3887 299.988L39.0201 299.65C39.4816 299.146 39.9558 298.654 40.4422 298.173L40.7938 298.529C41.2735 298.054 41.7653 297.591 42.2686 297.139L41.9347 296.767C42.4429 296.311 42.9627 295.867 43.4937 295.436L43.8091 295.824C44.3325 295.398 44.8668 294.984 45.4116 294.583L45.1152 294.181C45.6647 293.776 46.2249 293.384 46.7951 293.005L47.0718 293.422C47.6334 293.049 48.2049 292.688 48.7859 292.341L48.5294 291.912C49.1149 291.562 49.7099 291.225 50.3139 290.902L50.5496 291.343C51.144 291.025 51.7473 290.721 52.359 290.43L52.1444 289.979C52.7603 289.686 53.3845 289.408 54.0167 289.143L54.2096 289.605C54.8312 289.345 55.4606 289.099 56.0973 288.867L55.9265 288.397C56.5669 288.165 57.2146 287.946 57.8693 287.743L58.0178 288.22C58.6607 288.02 59.3105 287.835 59.9666 287.664L59.8408 287.18C60.4998 287.009 61.1651 286.852 61.8364 286.711L61.9395 287.2C62.598 287.061 63.2622 286.937 63.9319 286.829L63.8518 286.335C64.5235 286.226 65.2005 286.132 65.8824 286.054L65.9396 286.551C66.6077 286.474 67.2806 286.412 67.958 286.365L67.9239 285.867C68.6022 285.82 69.285 285.789 69.9717 285.773L69.9831 286.273C70.3211 286.265 70.6601 286.262 71 286.262C71.34 286.262 71.6789 286.265 72.0169 286.273L72.0283 285.773C72.7151 285.789 73.3978 285.82 74.0762 285.867L74.042 286.365C74.7194 286.412 75.3923 286.474 76.0605 286.551L76.1176 286.054C76.7996 286.132 77.4766 286.226 78.1482 286.335L78.0681 286.829C78.7378 286.937 79.4021 287.061 80.0606 287.2L80.1636 286.711C80.8349 286.852 81.5002 287.009 82.1593 287.18L82.0334 287.664C82.6895 287.835 83.3393 288.02 83.9823 288.22L84.1307 287.743C84.7854 287.946 85.4332 288.165 86.0736 288.397L85.9027 288.867C86.5395 289.099 87.1689 289.345 87.7904 289.605L87.9833 289.143C88.6155 289.408 89.2398 289.686 89.8556 289.979L89.6411 290.43C90.2527 290.721 90.856 291.025 91.4504 291.343L91.6862 290.902C92.2902 291.225 92.8852 291.562 93.4707 291.912L93.2142 292.341C93.7951 292.688 94.3666 293.049 94.9282 293.422L95.205 293.005C95.7752 293.384 96.3353 293.776 96.8849 294.181L96.5885 294.583C97.1333 294.984 97.6676 295.398 98.1909 295.824L98.5064 295.436C99.0373 295.867 99.5571 296.311 100.065 296.767L99.7315 297.139C100.235 297.591 100.727 298.054 101.206 298.529L101.558 298.173C102.044 298.654 102.518 299.146 102.98 299.65L102.611 299.988C103.068 300.486 103.512 300.995 103.943 301.514L104.328 301.195C104.764 301.721 105.188 302.258 105.598 302.805L105.197 303.104C105.602 303.645 105.994 304.195 106.371 304.755L106.785 304.476C107.167 305.042 107.535 305.619 107.888 306.204L107.46 306.462C107.808 307.04 108.142 307.627 108.461 308.222L108.902 307.986C109.224 308.588 109.532 309.199 109.823 309.817L109.371 310.031C109.659 310.64 109.931 311.258 110.187 311.883L110.65 311.694C110.909 312.325 111.152 312.964 111.378 313.61L110.907 313.775C111.129 314.411 111.336 315.053 111.527 315.702L112.007 315.561C112.198 316.215 112.374 316.876 112.532 317.543L112.046 317.658C112.201 318.313 112.34 318.973 112.462 319.639L112.954 319.549C113.077 320.219 113.182 320.894 113.271 321.575L112.775 321.639C112.861 322.305 112.931 322.976 112.983 323.652L113.482 323.614Z" stroke="#97A26E" stroke-dasharray="2 2"/>
<path d="M122.545 270.055C122.586 270.723 122.613 271.394 122.626 272.068L122.126 272.078C122.133 272.411 122.136 272.745 122.136 273.08C122.136 273.415 122.133 273.749 122.126 274.082L122.626 274.092C122.613 274.766 122.586 275.437 122.545 276.105L122.046 276.075C122.006 276.741 121.953 277.404 121.886 278.064L122.384 278.114C122.316 278.785 122.235 279.453 122.14 280.117L121.645 280.047C121.551 280.708 121.444 281.365 121.324 282.017L121.816 282.107C121.694 282.77 121.559 283.429 121.411 284.082L120.923 283.972C120.776 284.622 120.616 285.268 120.443 285.908L120.926 286.038C120.75 286.689 120.562 287.334 120.361 287.974L119.884 287.824C119.684 288.46 119.471 289.091 119.247 289.716L119.717 289.885C119.489 290.519 119.249 291.147 118.996 291.769L118.533 291.581C118.282 292.198 118.02 292.809 117.745 293.414L118.2 293.621C117.922 294.234 117.632 294.84 117.33 295.439L116.883 295.214C116.583 295.809 116.272 296.397 115.949 296.979L116.386 297.221C116.06 297.809 115.722 298.391 115.372 298.964L114.945 298.704C114.599 299.273 114.241 299.835 113.873 300.389L114.289 300.665C113.917 301.225 113.534 301.778 113.14 302.322L112.735 302.029C112.344 302.568 111.943 303.099 111.532 303.623L111.925 303.932C111.51 304.46 111.084 304.98 110.648 305.492L110.268 305.168C109.836 305.675 109.395 306.173 108.943 306.662L109.311 307.001C108.856 307.495 108.39 307.981 107.916 308.457L107.562 308.104C107.092 308.575 106.613 309.037 106.125 309.49L106.465 309.857C105.972 310.314 105.471 310.761 104.96 311.199L104.635 310.82C104.13 311.253 103.616 311.676 103.094 312.09L103.404 312.482C102.878 312.899 102.343 313.307 101.8 313.704L101.505 313.3C100.968 313.693 100.423 314.075 99.8706 314.448L100.15 314.862C99.5932 315.237 99.0286 315.602 98.4564 315.956L98.1933 315.531C97.628 315.881 97.0552 316.22 96.4752 316.549L96.7217 316.984C96.1377 317.315 95.5464 317.635 94.9483 317.944L94.7188 317.5C94.1281 317.805 93.5305 318.099 92.9265 318.383L93.1387 318.835C92.5313 319.12 91.9175 319.394 91.2973 319.656L91.1027 319.195C90.4909 319.454 89.8729 319.701 89.249 319.937L89.4258 320.404C88.7984 320.641 88.1652 320.867 87.5264 321.08L87.3678 320.606C86.7378 320.817 86.1022 321.016 85.4615 321.203L85.6017 321.683C84.9578 321.872 84.3086 322.048 83.6544 322.212L83.5326 321.727C82.8892 321.889 82.2409 322.038 81.588 322.176L81.6911 322.665C81.0357 322.803 80.3757 322.929 79.7114 323.043L79.627 322.55C78.9729 322.662 78.3146 322.762 77.6522 322.85L77.7177 323.345C77.0533 323.433 76.3848 323.509 75.7126 323.572L75.6659 323.074C75.0055 323.136 74.3415 323.186 73.6741 323.223L73.7021 323.723C73.0343 323.76 72.3632 323.785 71.689 323.798L71.6797 323.298C71.3463 323.304 71.0121 323.307 70.6772 323.307C70.3422 323.307 70.0081 323.304 69.6747 323.298L69.6653 323.798C68.9911 323.785 68.32 323.76 67.6522 323.723L67.6802 323.223C67.0128 323.186 66.3488 323.136 65.6884 323.074L65.6417 323.572C64.9695 323.509 64.301 323.433 63.6366 323.345L63.7021 322.85C63.0397 322.762 62.3814 322.662 61.7273 322.55L61.6429 323.043C60.9786 322.929 60.3186 322.803 59.6632 322.665L59.7663 322.176C59.1134 322.038 58.4651 321.889 57.8217 321.727L57.7 322.212C57.0458 322.048 56.3966 321.872 55.7526 321.683L55.8929 321.203C55.2521 321.016 54.6166 320.817 53.9866 320.606L53.8279 321.08C53.1891 320.867 52.5559 320.641 51.9285 320.404L52.1053 319.936C51.4814 319.701 50.8634 319.453 50.2516 319.195L50.057 319.656C49.4369 319.394 48.823 319.12 48.2157 318.835L48.4279 318.383C47.8238 318.099 47.2263 317.805 46.6356 317.5L46.406 317.944C45.8079 317.635 45.2167 317.315 44.6326 316.984L44.8791 316.549C44.2991 316.22 43.7263 315.881 43.161 315.531L42.8979 315.956C42.3257 315.602 41.7611 315.237 41.2044 314.862L41.4837 314.448C40.9311 314.075 40.3863 313.693 39.8496 313.3L39.5544 313.704C39.0113 313.307 38.4764 312.899 37.95 312.482L38.2606 312.09C37.7384 311.676 37.2247 311.253 36.7198 310.82L36.3942 311.199C35.8838 310.761 35.3821 310.314 34.8897 309.857L35.2298 309.49C34.7415 309.037 34.2624 308.575 33.7927 308.104L33.4386 308.457C32.9639 307.981 32.4987 307.495 32.0433 307.001L32.4109 306.662C31.9597 306.173 31.5181 305.675 31.0866 305.168L30.706 305.492C30.2701 304.98 29.8443 304.46 29.429 303.932L29.8221 303.623C29.4109 303.099 29.01 302.568 28.6197 302.029L28.2147 302.322C27.8206 301.778 27.4373 301.225 27.065 300.665L27.4814 300.389C27.113 299.835 26.7555 299.273 26.4092 298.704L25.9822 298.964C25.6327 298.391 25.2946 297.809 24.968 297.221L25.4051 296.979C25.0824 296.397 24.771 295.809 24.4714 295.214L24.0248 295.439C23.7228 294.84 23.4325 294.234 23.1543 293.621L23.6095 293.414C23.3348 292.809 23.0719 292.198 22.8212 291.581L22.3579 291.769C22.1054 291.147 21.8651 290.519 21.6373 289.885L22.1078 289.716C21.883 289.091 21.6705 288.46 21.4707 287.824L20.9937 287.974C20.7927 287.334 20.6043 286.689 20.4288 286.038L20.9115 285.908C20.7387 285.268 20.5785 284.622 20.4312 283.972L19.9435 284.082C19.7955 283.429 19.6604 282.77 19.5384 282.107L20.0302 282.017C19.9101 281.365 19.803 280.708 19.709 280.047L19.214 280.117C19.1197 279.453 19.0385 278.786 18.9707 278.114L19.4682 278.064C19.4016 277.404 19.3482 276.741 19.308 276.075L18.8089 276.105C18.7687 275.437 18.7417 274.766 18.7282 274.092L19.2281 274.082C19.2214 273.749 19.2181 273.415 19.2181 273.08C19.2181 272.745 19.2214 272.411 19.2281 272.078L18.7282 272.068C18.7417 271.394 18.7687 270.723 18.8089 270.055L19.308 270.085C19.3482 269.419 19.4016 268.756 19.4682 268.096L18.9707 268.046C19.0385 267.375 19.1197 266.707 19.214 266.043L19.709 266.113C19.803 265.452 19.9101 264.796 20.0302 264.143L19.5384 264.053C19.6604 263.39 19.7955 262.732 19.9435 262.078L20.4312 262.188C20.5785 261.538 20.7387 260.893 20.9115 260.252L20.4288 260.122C20.6043 259.471 20.7927 258.826 20.9937 258.186L21.4707 258.336C21.6705 257.7 21.883 257.069 22.1078 256.444L21.6373 256.275C21.8651 255.641 22.1054 255.013 22.3579 254.391L22.8212 254.579C23.0719 253.962 23.3348 253.351 23.6095 252.746L23.1543 252.539C23.4325 251.927 23.7228 251.32 24.0248 250.721L24.4714 250.946C24.771 250.351 25.0823 249.763 25.4051 249.182L24.968 248.939C25.2946 248.351 25.6327 247.77 25.9821 247.196L26.4092 247.456C26.7555 246.887 27.113 246.326 27.4814 245.772L27.065 245.495C27.4373 244.935 27.8206 244.383 28.2146 243.838L28.6197 244.131C29.01 243.592 29.4109 243.061 29.8221 242.538L29.429 242.229C29.8443 241.7 30.2701 241.18 30.706 240.668L31.0866 240.992C31.5181 240.486 31.9597 239.987 32.4109 239.498L32.0433 239.159C32.4987 238.665 32.9639 238.18 33.4386 237.703L33.7927 238.056C34.2624 237.585 34.7415 237.123 35.2298 236.67L34.8897 236.303C35.3821 235.847 35.8838 235.399 36.3942 234.961L36.7198 235.341C37.2247 234.907 37.7384 234.484 38.2606 234.07L37.95 233.678C38.4764 233.261 39.0113 232.853 39.5545 232.456L39.8496 232.86C40.3863 232.467 40.9311 232.085 41.4837 231.712L41.2044 231.298C41.7611 230.923 42.3257 230.558 42.8979 230.204L43.161 230.629C43.7264 230.279 44.2992 229.94 44.8791 229.611L44.6326 229.176C45.2167 228.845 45.8079 228.525 46.4061 228.216L46.6356 228.66C47.2263 228.355 47.8238 228.061 48.4279 227.778L48.2157 227.325C48.823 227.04 49.4369 226.767 50.057 226.505L50.2517 226.965C50.8635 226.707 51.4814 226.459 52.1053 226.224L51.9286 225.756C52.5559 225.519 53.1891 225.293 53.828 225.08L53.9866 225.554C54.6166 225.343 55.2521 225.144 55.8929 224.957L55.7526 224.477C56.3966 224.289 57.0458 224.112 57.7 223.948L57.8217 224.433C58.4651 224.271 59.1134 224.122 59.7663 223.984L59.6632 223.495C60.3186 223.357 60.9786 223.231 61.643 223.117L61.7273 223.61C62.3814 223.498 63.0398 223.398 63.7022 223.31L63.6366 222.815C64.3011 222.727 64.9695 222.651 65.6418 222.588L65.6885 223.086C66.3488 223.024 67.0128 222.974 67.6803 222.937L67.6523 222.438C68.32 222.4 68.9911 222.375 69.6654 222.362L69.6747 222.862C70.0081 222.856 70.3423 222.853 70.6772 222.853C71.0121 222.853 71.3463 222.856 71.6797 222.862L71.689 222.362C72.3633 222.375 73.0344 222.4 73.7021 222.438L73.6741 222.937C74.3416 222.974 75.0056 223.024 75.6659 223.086L75.7126 222.588C76.3848 222.651 77.0533 222.727 77.7178 222.815L77.6522 223.31C78.3146 223.398 78.973 223.498 79.6271 223.61L79.7114 223.117C80.3758 223.231 81.0358 223.357 81.6911 223.495L81.588 223.984C82.241 224.122 82.8892 224.271 83.5327 224.433L83.6544 223.948C84.3086 224.112 84.9578 224.289 85.6018 224.477L85.4615 224.957C86.1023 225.144 86.7378 225.343 87.3678 225.554L87.5264 225.08C88.1653 225.293 88.7985 225.519 89.4258 225.756L89.2491 226.224C89.8729 226.459 90.4909 226.707 91.1027 226.965L91.2973 226.505C91.9175 226.767 92.5314 227.04 93.1387 227.325L92.9265 227.778C93.5305 228.061 94.1281 228.355 94.7188 228.66L94.9483 228.216C95.5465 228.525 96.1377 228.845 96.7217 229.176L96.4752 229.611C97.0552 229.94 97.628 230.279 98.1933 230.629L98.4565 230.204C99.0286 230.558 99.5933 230.923 100.15 231.298L99.8707 231.712C100.423 232.085 100.968 232.467 101.505 232.86L101.8 232.456C102.343 232.853 102.878 233.261 103.404 233.678L103.094 234.07C103.616 234.484 104.13 234.907 104.635 235.341L104.96 234.961C105.471 235.399 105.972 235.847 106.465 236.303L106.125 236.67C106.613 237.123 107.092 237.585 107.562 238.056L107.916 237.703C108.39 238.18 108.856 238.665 109.311 239.159L108.943 239.498C109.395 239.987 109.836 240.486 110.268 240.992L110.648 240.668C111.084 241.18 111.51 241.7 111.925 242.229L111.532 242.538C111.943 243.061 112.344 243.592 112.735 244.131L113.14 243.838C113.534 244.383 113.917 244.935 114.289 245.495L113.873 245.772C114.241 246.326 114.599 246.887 114.945 247.456L115.372 247.196C115.722 247.77 116.06 248.351 116.386 248.939L115.949 249.182C116.272 249.763 116.583 250.351 116.883 250.946L117.33 250.721C117.632 251.32 117.922 251.927 118.2 252.539L117.745 252.746C118.02 253.351 118.282 253.962 118.533 254.579L118.996 254.391C119.249 255.013 119.489 255.641 119.717 256.275L119.247 256.444C119.471 257.069 119.684 257.7 119.884 258.336L120.361 258.186C120.562 258.826 120.75 259.471 120.926 260.122L120.443 260.252C120.616 260.893 120.776 261.538 120.923 262.188L121.411 262.078C121.559 262.731 121.694 263.39 121.816 264.053L121.324 264.143C121.444 264.796 121.551 265.452 121.645 266.113L122.14 266.043C122.235 266.707 122.316 267.375 122.384 268.046L121.886 268.096C121.953 268.756 122.006 269.419 122.046 270.085L122.545 270.055Z" stroke="#76B2A8" stroke-dasharray="2 2"/>
<path d="M132.889 179.843C132.922 180.502 132.944 181.164 132.955 181.828L132.455 181.837C132.461 182.166 132.464 182.496 132.464 182.827C132.464 183.158 132.461 183.488 132.455 183.817L132.955 183.826C132.944 184.49 132.922 185.152 132.889 185.811L132.389 185.786C132.356 186.446 132.312 187.103 132.256 187.757L132.755 187.799C132.699 188.462 132.632 189.122 132.554 189.778L132.057 189.719C131.98 190.374 131.891 191.025 131.792 191.672L132.286 191.748C132.185 192.406 132.073 193.06 131.95 193.711L131.459 193.619C131.337 194.266 131.204 194.91 131.06 195.55L131.548 195.659C131.403 196.307 131.247 196.952 131.08 197.592L130.596 197.466C130.43 198.104 130.253 198.738 130.066 199.367L130.546 199.51C130.356 200.147 130.156 200.779 129.946 201.407L129.472 201.248C129.263 201.872 129.044 202.492 128.814 203.107L129.283 203.282C129.05 203.904 128.808 204.522 128.555 205.135L128.093 204.944C127.842 205.552 127.581 206.156 127.31 206.754L127.765 206.961C127.492 207.565 127.208 208.165 126.915 208.758L126.466 208.537C126.175 209.127 125.873 209.712 125.562 210.291L126.003 210.528C125.689 211.113 125.366 211.692 125.033 212.265L124.601 212.014C124.27 212.583 123.93 213.146 123.582 213.703L124.005 213.968C123.653 214.531 123.292 215.087 122.921 215.637L122.506 215.358C122.139 215.903 121.762 216.443 121.377 216.976L121.782 217.269C121.394 217.806 120.996 218.337 120.59 218.862L120.195 218.555C119.792 219.075 119.381 219.589 118.961 220.095L119.346 220.414C118.923 220.925 118.491 221.429 118.052 221.925L117.677 221.594C117.241 222.086 116.797 222.572 116.345 223.05L116.708 223.394C116.253 223.875 115.789 224.35 115.318 224.817L114.966 224.462C114.499 224.925 114.024 225.38 113.542 225.828L113.882 226.194C113.397 226.645 112.903 227.089 112.402 227.524L112.074 227.147C111.578 227.579 111.075 228.002 110.564 228.418L110.88 228.806C110.366 229.224 109.846 229.635 109.318 230.037L109.015 229.64C108.492 230.038 107.962 230.429 107.426 230.811L107.716 231.218C107.176 231.603 106.63 231.979 106.077 232.347L105.8 231.93C105.253 232.294 104.699 232.65 104.14 232.997L104.403 233.422C103.84 233.771 103.271 234.111 102.695 234.443L102.445 234.009C101.876 234.337 101.3 234.657 100.719 234.967L100.955 235.408C100.371 235.72 99.7812 236.023 99.1859 236.317L98.9646 235.869C98.3754 236.16 97.7807 236.442 97.1807 236.714L97.3876 237.169C96.7845 237.444 96.176 237.708 95.5625 237.964L95.3703 237.502C94.7643 237.755 94.1533 237.998 93.5375 238.231L93.7149 238.699C93.0957 238.934 92.4717 239.159 91.843 239.375L91.6807 238.902C91.0594 239.115 90.4334 239.319 89.8031 239.513L89.9502 239.991C89.3182 240.186 88.6817 240.371 88.0411 240.546L87.9092 240.064C87.2757 240.237 86.6381 240.4 85.9965 240.554L86.1129 241.04C85.4693 241.194 84.8217 241.339 84.1703 241.473L84.0693 240.983C83.4271 241.116 82.7812 241.238 82.1317 241.351L82.2171 241.844C81.5649 241.957 80.9092 242.06 80.2501 242.153L80.1802 241.658C79.5307 241.749 78.8779 241.831 78.222 241.903L78.2762 242.4C77.6194 242.472 76.9594 242.533 76.2965 242.585L76.2578 242.086C75.6029 242.137 74.945 242.178 74.2844 242.209L74.3076 242.708C73.6483 242.739 72.9862 242.759 72.3216 242.769L72.3139 242.269C71.9841 242.274 71.6538 242.277 71.3228 242.277C70.9918 242.277 70.6614 242.274 70.3317 242.269L70.324 242.769C69.6594 242.759 68.9973 242.739 68.338 242.708L68.3611 242.209C67.7005 242.178 67.0427 242.137 66.3877 242.086L66.349 242.585C65.6861 242.533 65.0262 242.472 64.3693 242.4L64.4236 241.903C63.7676 241.831 63.1148 241.749 62.4653 241.658L62.3955 242.153C61.7364 242.06 61.0806 241.957 60.4284 241.844L60.5139 241.351C59.8644 241.238 59.2184 241.116 58.5763 240.983L58.4753 241.473C57.8239 241.339 57.1763 241.194 56.5326 241.04L56.6491 240.554C56.0075 240.4 55.3699 240.237 54.7364 240.064L54.6045 240.546C53.9639 240.371 53.3274 240.186 52.6954 239.991L52.8425 239.513C52.2122 239.319 51.5862 239.115 50.9649 238.902L50.8025 239.375C50.1739 239.159 49.5499 238.934 48.9307 238.699L49.1081 238.231C48.4923 237.998 47.8813 237.755 47.2753 237.502L47.0831 237.964C46.4696 237.708 45.8611 237.444 45.258 237.169L45.4649 236.714C44.8649 236.442 44.2702 236.16 43.6811 235.869L43.4597 236.317C42.8644 236.023 42.2747 235.72 41.6908 235.408L41.9264 234.967C41.3451 234.657 40.7697 234.337 40.2001 234.009L39.9505 234.443C39.3751 234.111 38.8056 233.771 38.2424 233.422L38.5058 232.997C37.9461 232.65 37.3927 232.294 36.8456 231.93L36.5687 232.347C36.0158 231.979 35.4694 231.603 34.9297 231.218L35.2199 230.811C34.6835 230.429 34.1538 230.038 33.631 229.64L33.3279 230.037C32.8001 229.635 32.2792 229.224 31.7655 228.806L32.0813 228.418C31.5708 228.002 31.0675 227.579 30.5715 227.147L30.2433 227.524C29.7425 227.089 29.2491 226.645 28.7633 226.194L29.1035 225.828C28.6212 225.38 28.1465 224.925 27.6795 224.462L27.3275 224.817C26.8562 224.35 26.3927 223.875 25.9372 223.394L26.3005 223.05C25.8484 222.572 25.4043 222.086 24.9683 221.594L24.5939 221.925C24.1542 221.429 23.7227 220.925 23.2996 220.414L23.6846 220.095C23.2649 219.589 22.8536 219.075 22.4508 218.555L22.0555 218.862C21.6494 218.337 21.2519 217.806 20.8633 217.269L21.2685 216.976C20.8832 216.443 20.5067 215.903 20.1392 215.358L19.7245 215.637C19.354 215.087 18.9925 214.531 18.6403 213.968L19.0641 213.703C18.7152 213.146 18.3755 212.583 18.0451 212.014L17.6127 212.265C17.2798 211.692 16.9564 211.113 16.6426 210.528L17.0831 210.291C16.7723 209.712 16.4709 209.127 16.1793 208.537L15.731 208.758C15.4376 208.165 15.1539 207.565 14.8802 206.961L15.3357 206.754C15.0648 206.156 14.8038 205.552 14.5528 204.944L14.0906 205.135C13.8379 204.522 13.5953 203.904 13.3629 203.282L13.8314 203.107C13.6019 202.492 13.3826 201.872 13.1735 201.248L12.6994 201.407C12.4892 200.779 12.2894 200.147 12.1001 199.51L12.5794 199.367C12.3922 198.738 12.2154 198.104 12.0493 197.466L11.5654 197.592C11.3987 196.952 11.2426 196.307 11.0972 195.659L11.5851 195.55C11.4416 194.91 11.3087 194.266 11.1866 193.619L10.6953 193.711C10.5726 193.06 10.4607 192.406 10.3597 191.748L10.8539 191.672C10.7546 191.025 10.666 190.373 10.5883 189.719L10.0918 189.778C10.0139 189.122 9.94684 188.462 9.89089 187.799L10.3891 187.757C10.3339 187.103 10.2896 186.446 10.2563 185.786L9.75692 185.811C9.7237 185.152 9.70143 184.49 9.69027 183.826L10.1902 183.817C10.1847 183.488 10.1819 183.158 10.1819 182.827C10.1819 182.496 10.1847 182.166 10.1902 181.837L9.69027 181.828C9.70143 181.164 9.7237 180.502 9.75692 179.843L10.2563 179.868C10.2896 179.208 10.3339 178.551 10.3891 177.896L9.8909 177.854C9.94684 177.192 10.0139 176.532 10.0918 175.876L10.5883 175.935C10.666 175.28 10.7546 174.629 10.854 173.982L10.3597 173.906C10.4607 173.248 10.5726 172.593 10.6953 171.943L11.1867 172.035C11.3088 171.388 11.4416 170.744 11.5851 170.104L11.0972 169.995C11.2426 169.346 11.3987 168.702 11.5654 168.062L12.0493 168.188C12.2154 167.55 12.3922 166.916 12.5794 166.286L12.1001 166.144C12.2894 165.507 12.4892 164.875 12.6994 164.247L13.1735 164.406C13.3826 163.782 13.6019 163.162 13.8314 162.547L13.363 162.372C13.5953 161.75 13.8379 161.132 14.0906 160.519L14.5528 160.71C14.8038 160.101 15.0648 159.498 15.3357 158.899L14.8802 158.693C15.1539 158.089 15.4376 157.489 15.731 156.895L16.1793 157.117C16.4709 156.527 16.7723 155.942 17.0831 155.362L16.6426 155.126C16.9564 154.541 17.2798 153.962 17.6127 153.389L18.0451 153.64C18.3755 153.071 18.7152 152.508 19.0641 151.951L18.6403 151.685C18.9925 151.123 19.354 150.567 19.7245 150.017L20.1392 150.296C20.5067 149.75 20.8832 149.211 21.2685 148.678L20.8633 148.385C21.2519 147.848 21.6494 147.317 22.0555 146.792L22.4508 147.098C22.8536 146.578 23.2649 146.065 23.6846 145.558L23.2996 145.239C23.7227 144.729 24.1542 144.225 24.5939 143.728L24.9683 144.06C25.4043 143.567 25.8484 143.082 26.3005 142.604L25.9372 142.26C26.3927 141.778 26.8562 141.304 27.3275 140.837L27.6795 141.192C28.1465 140.729 28.6212 140.274 29.1035 139.826L28.7633 139.46C29.2491 139.009 29.7425 138.565 30.2433 138.129L30.5715 138.507C31.0675 138.075 31.5708 137.651 32.0813 137.236L31.7655 136.848C32.2792 136.429 32.8001 136.019 33.3279 135.616L33.631 136.014C34.1538 135.616 34.6835 135.225 35.2199 134.843L34.9297 134.436C35.4694 134.051 36.0158 133.675 36.5687 133.307L36.8456 133.723C37.3927 133.36 37.9461 133.004 38.5058 132.657L38.2424 132.232C38.8056 131.883 39.3751 131.543 39.9505 131.211L40.2001 131.644C40.7697 131.316 41.3451 130.997 41.9263 130.686L41.6908 130.245C42.2747 129.933 42.8644 129.63 43.4597 129.337L43.681 129.785C44.2702 129.494 44.8649 129.212 45.4649 128.94L45.258 128.484C45.8611 128.21 46.4696 127.945 47.0831 127.69L47.2753 128.151C47.8813 127.899 48.4923 127.656 49.1081 127.422L48.9308 126.955C49.5499 126.72 50.1739 126.495 50.8026 126.279L50.9649 126.752C51.5862 126.539 52.2122 126.335 52.8426 126.141L52.6954 125.663C53.3274 125.468 53.9639 125.283 54.6045 125.108L54.7364 125.59C55.3699 125.417 56.0075 125.254 56.6491 125.1L56.5327 124.614C57.1763 124.459 57.8239 124.315 58.4753 124.181L58.5763 124.67C59.2185 124.538 59.8644 124.415 60.5139 124.303L60.4285 123.81C61.0807 123.697 61.7364 123.594 62.3955 123.501L62.4654 123.996C63.1149 123.904 63.7677 123.823 64.4236 123.751L64.3694 123.254C65.0262 123.182 65.6862 123.121 66.3491 123.069L66.3878 123.568C67.0427 123.517 67.7006 123.476 68.3612 123.445L68.338 122.946C68.9974 122.915 69.6594 122.895 70.324 122.884L70.3317 123.384C70.6615 123.379 70.9918 123.377 71.3228 123.377C71.6538 123.377 71.9842 123.379 72.3139 123.384L72.3217 122.884C72.9863 122.895 73.6483 122.915 74.3076 122.946L74.2845 123.445C74.9451 123.476 75.6029 123.517 76.2579 123.568L76.2966 123.069C76.9595 123.121 77.6195 123.182 78.2763 123.254L78.222 123.751C78.878 123.823 79.5308 123.904 80.1803 123.996L80.2501 123.501C80.9092 123.594 81.565 123.697 82.2172 123.81L82.1317 124.303C82.7812 124.415 83.4272 124.538 84.0694 124.67L84.1703 124.181C84.8217 124.315 85.4693 124.459 86.113 124.614L85.9965 125.1C86.6381 125.254 87.2758 125.417 87.9092 125.59L88.0411 125.108C88.6818 125.283 89.3182 125.468 89.9502 125.663L89.8031 126.141C90.4334 126.335 91.0594 126.539 91.6807 126.752L91.8431 126.279C92.4717 126.495 93.0957 126.72 93.7149 126.955L93.5375 127.422C94.1534 127.656 94.7643 127.899 95.3703 128.151L95.5625 127.69C96.176 127.945 96.7845 128.21 97.3876 128.484L97.1807 128.94C97.7807 129.212 98.3754 129.494 98.9646 129.785L99.1859 129.337C99.7812 129.63 100.371 129.933 100.955 130.245L100.719 130.686C101.3 130.997 101.876 131.316 102.445 131.644L102.695 131.211C103.271 131.543 103.84 131.883 104.403 132.232L104.14 132.657C104.699 133.004 105.253 133.36 105.8 133.723L106.077 133.307C106.63 133.675 107.176 134.051 107.716 134.436L107.426 134.843C107.962 135.225 108.492 135.616 109.015 136.014L109.318 135.616C109.846 136.019 110.366 136.429 110.88 136.848L110.564 137.236C111.075 137.651 111.578 138.075 112.074 138.507L112.402 138.129C112.903 138.565 113.397 139.009 113.882 139.46L113.542 139.826C114.024 140.274 114.499 140.729 114.966 141.192L115.318 140.837C115.789 141.304 116.253 141.778 116.708 142.26L116.345 142.604C116.797 143.082 117.241 143.567 117.677 144.06L118.052 143.728C118.491 144.225 118.923 144.729 119.346 145.239L118.961 145.558C119.381 146.065 119.792 146.578 120.195 147.098L120.59 146.792C120.996 147.317 121.394 147.848 121.782 148.385L121.377 148.678C121.762 149.211 122.139 149.75 122.506 150.296L122.921 150.017C123.292 150.567 123.653 151.123 124.005 151.685L123.582 151.951C123.93 152.508 124.27 153.071 124.601 153.64L125.033 153.389C125.366 153.962 125.689 154.541 126.003 155.126L125.562 155.362C125.873 155.942 126.175 156.527 126.466 157.117L126.915 156.895C127.208 157.489 127.492 158.089 127.765 158.693L127.31 158.899C127.581 159.498 127.842 160.101 128.093 160.71L128.555 160.519C128.808 161.132 129.05 161.75 129.283 162.372L128.814 162.547C129.044 163.162 129.263 163.782 129.472 164.406L129.946 164.247C130.156 164.875 130.356 165.507 130.546 166.144L130.066 166.286C130.253 166.916 130.43 167.55 130.596 168.188L131.08 168.062C131.247 168.702 131.403 169.346 131.548 169.995L131.06 170.104C131.204 170.744 131.337 171.388 131.459 172.035L131.95 171.943C132.073 172.593 132.185 173.248 132.286 173.906L131.792 173.982C131.891 174.629 131.98 175.28 132.057 175.935L132.554 175.876C132.632 176.532 132.699 177.192 132.755 177.854L132.256 177.896C132.312 178.551 132.356 179.208 132.389 179.868L132.889 179.843Z" stroke="#508DA8" stroke-dasharray="2 2"/>
<path d="M141.931 89.2768C141.962 89.9503 141.982 90.6264 141.992 91.3048L141.492 91.3123C141.497 91.6491 141.5 91.9864 141.5 92.3242C141.5 92.6621 141.497 92.9994 141.492 93.3361L141.992 93.3437C141.982 94.0221 141.962 94.6982 141.931 95.3717L141.432 95.3491C141.401 96.023 141.361 96.6943 141.31 97.3629L141.809 97.4007C141.757 98.0763 141.696 98.7492 141.625 99.4192L141.128 99.3663C141.056 100.037 140.975 100.705 140.883 101.37L141.379 101.438C141.287 102.11 141.184 102.779 141.072 103.444L140.579 103.361C140.467 104.025 140.345 104.686 140.213 105.343L140.703 105.441C140.57 106.106 140.427 106.768 140.274 107.426L139.787 107.313C139.634 107.968 139.472 108.619 139.301 109.267L139.784 109.395C139.61 110.051 139.426 110.703 139.233 111.351L138.754 111.208C138.562 111.853 138.36 112.493 138.149 113.13L138.623 113.287C138.41 113.931 138.187 114.57 137.954 115.205L137.485 115.033C137.254 115.665 137.013 116.292 136.763 116.915L137.227 117.101C136.975 117.729 136.714 118.354 136.443 118.973L135.985 118.773C135.716 119.389 135.437 120.001 135.15 120.608L135.602 120.822C135.312 121.434 135.013 122.042 134.706 122.644L134.261 122.416C133.955 123.015 133.64 123.609 133.317 124.197L133.755 124.438C133.429 125.032 133.094 125.62 132.751 126.203L132.32 125.949C131.979 126.528 131.629 127.102 131.271 127.67L131.694 127.937C131.333 128.51 130.964 129.077 130.586 129.639L130.171 129.36C129.796 129.918 129.413 130.47 129.022 131.016L129.429 131.307C129.035 131.858 128.632 132.402 128.222 132.941L127.824 132.638C127.417 133.172 127.002 133.701 126.579 134.223L126.968 134.538C126.542 135.064 126.109 135.584 125.668 136.098L125.288 135.772C124.851 136.281 124.406 136.785 123.953 137.282L124.323 137.618C123.867 138.119 123.404 138.613 122.934 139.1L122.574 138.752C122.107 139.236 121.633 139.713 121.153 140.183L121.502 140.54C121.018 141.013 120.528 141.479 120.03 141.938L119.691 141.571C119.197 142.027 118.697 142.475 118.189 142.917L118.518 143.294C118.008 143.738 117.491 144.175 116.968 144.605L116.65 144.219C116.131 144.645 115.606 145.065 115.074 145.476L115.38 145.872C114.845 146.286 114.304 146.693 113.757 147.093L113.462 146.689C112.92 147.084 112.372 147.473 111.817 147.854L112.1 148.266C111.543 148.649 110.979 149.024 110.41 149.392L110.139 148.972C109.575 149.336 109.005 149.693 108.43 150.042L108.689 150.469C108.111 150.82 107.527 151.162 106.938 151.497L106.691 151.062C106.107 151.394 105.518 151.718 104.923 152.034L105.158 152.476C104.561 152.792 103.959 153.101 103.352 153.402L103.13 152.954C102.528 153.252 101.921 153.542 101.31 153.824L101.519 154.278C100.905 154.561 100.287 154.835 99.6636 155.101L99.4673 154.641C98.85 154.905 98.2281 155.16 97.6016 155.407L97.7848 155.872C97.1558 156.12 96.5223 156.359 95.8844 156.59L95.7144 156.119C95.0838 156.348 94.4489 156.567 93.8099 156.778L93.9666 157.253C93.3242 157.465 92.6777 157.668 92.0272 157.863L91.8839 157.384C91.2419 157.576 90.5961 157.759 89.9464 157.934L90.0762 158.417C89.4236 158.592 88.7672 158.759 88.1071 158.917L87.9909 158.43C87.3386 158.586 86.6827 158.733 86.0234 158.872L86.126 159.361C85.4653 159.499 84.8012 159.629 84.1338 159.75L84.0448 159.258C83.3842 159.377 82.7203 159.488 82.0533 159.589L82.1285 160.083C81.4619 160.185 80.7923 160.277 80.1197 160.36L80.0583 159.864C79.3917 159.947 78.7223 160.02 78.05 160.085L78.0978 160.583C77.4271 160.647 76.7536 160.702 76.0775 160.748L76.0435 160.249C75.3741 160.295 74.7022 160.332 74.0278 160.359L74.0482 160.859C73.3744 160.886 72.6981 160.905 72.0195 160.914L72.0127 160.414C71.6757 160.419 71.3382 160.421 71 160.421C70.6619 160.421 70.3243 160.419 69.9873 160.414L69.9805 160.914C69.3019 160.905 68.6257 160.886 67.9519 160.859L67.9723 160.359C67.2979 160.332 66.6259 160.295 65.9566 160.249L65.9225 160.748C65.2464 160.702 64.573 160.647 63.9023 160.583L63.95 160.085C63.2778 160.02 62.6083 159.947 61.9418 159.864L61.8803 160.36C61.2077 160.277 60.5381 160.185 59.8716 160.083L59.9467 159.589C59.2797 159.488 58.6158 159.377 57.9552 159.258L57.8663 159.75C57.1989 159.629 56.5347 159.499 55.874 159.361L55.9766 158.872C55.3173 158.733 54.6614 158.586 54.0092 158.43L53.8929 158.917C53.2329 158.759 52.5765 158.592 51.9238 158.417L52.0536 157.934C51.404 157.759 50.7581 157.576 50.1161 157.384L49.9728 157.863C49.3223 157.668 48.6758 157.465 48.0334 157.253L48.1902 156.778C47.5511 156.567 46.9162 156.348 46.2856 156.119L46.1156 156.59C45.4777 156.359 44.8442 156.12 44.2152 155.872L44.3984 155.407C43.7719 155.16 43.15 154.905 42.5327 154.641L42.3364 155.101C41.7133 154.835 41.0948 154.561 40.4813 154.278L40.6905 153.824C40.0787 153.542 39.4718 153.252 38.8699 152.954L38.6479 153.402C38.0409 153.101 37.439 152.792 36.8424 152.476L37.0769 152.034C36.4823 151.718 35.893 151.394 35.309 151.062L35.062 151.497C34.4728 151.162 33.889 150.82 33.3109 150.469L33.5701 150.042C32.9949 149.693 32.4253 149.336 31.8615 148.972L31.5902 149.392C31.0208 149.024 30.4572 148.649 29.8996 148.266L30.1827 147.854C29.6285 147.473 29.0801 147.084 28.5379 146.689L28.2431 147.093C27.6958 146.693 27.1546 146.286 26.6197 145.872L26.9259 145.476C26.3942 145.065 25.8688 144.645 25.3498 144.219L25.0324 144.605C24.5091 144.175 23.9924 143.738 23.4824 143.294L23.8107 142.917C23.3034 142.475 22.8028 142.027 22.309 141.571L21.9699 141.938C21.4723 141.479 20.9815 141.013 20.4979 140.54L20.8474 140.183C20.3665 139.713 19.8927 139.236 19.4261 138.752L19.0663 139.1C18.5961 138.613 18.133 138.119 17.6774 137.618L18.0471 137.282C17.5945 136.785 17.1493 136.281 16.7116 135.772L16.3323 136.097C15.8911 135.584 15.4576 135.064 15.0318 134.538L15.4205 134.223C14.9978 133.701 14.5828 133.172 14.1757 132.638L13.7779 132.941C13.3677 132.402 12.9655 131.858 12.5714 131.307L12.9779 131.016C12.5867 130.47 12.2036 129.918 11.8287 129.36L11.4137 129.639C11.0361 129.077 10.6667 128.51 10.3058 127.937L10.7289 127.67C10.3709 127.102 10.0213 126.528 9.68022 125.949L9.2494 126.203C8.90598 125.62 8.57115 125.032 8.24507 124.438L8.6833 124.197C8.35994 123.609 8.04527 123.015 7.73944 122.416L7.29418 122.644C6.98651 122.042 6.68772 121.434 6.39797 120.822L6.8499 120.608C6.56254 120.001 6.28414 119.389 6.01487 118.773L5.55667 118.973C5.28614 118.354 5.02475 117.729 4.77268 117.101L5.23675 116.915C4.9869 116.292 4.74628 115.665 4.51503 115.033L4.04551 115.205C3.81306 114.57 3.59 113.931 3.37652 113.287L3.85107 113.13C3.63989 112.493 3.43814 111.853 3.24597 111.208L2.76682 111.351C2.5735 110.703 2.38981 110.051 2.21591 109.395L2.69922 109.267C2.52757 108.619 2.36553 107.968 2.21326 107.313L1.72625 107.426C1.57319 106.768 1.42992 106.106 1.2966 105.441L1.78685 105.343C1.65511 104.686 1.53315 104.025 1.42113 103.361L0.928103 103.444C0.815828 102.779 0.713463 102.11 0.621161 101.438L1.11651 101.37C1.02514 100.705 0.943712 100.037 0.872362 99.3663L0.375166 99.4192C0.303905 98.7492 0.242626 98.0763 0.191474 97.4007L0.690047 97.363C0.639423 96.6943 0.598793 96.023 0.568301 95.3491L0.0688117 95.3717C0.0383348 94.6982 0.0179108 94.0221 0.00768111 93.3437L0.507624 93.3362C0.502547 92.9994 0.5 92.6621 0.5 92.3242C0.5 91.9864 0.502547 91.6491 0.507624 91.3124L0.00768065 91.3048C0.01791 90.6264 0.0383337 89.9503 0.0688103 89.2768L0.568299 89.2994C0.598791 88.6255 0.639421 87.9542 0.690045 87.2856L0.191472 87.2478C0.242623 86.5722 0.303902 85.8993 0.375163 85.2293L0.872359 85.2822C0.943709 84.6113 1.02514 83.9434 1.1165 83.2784L0.621159 83.2104C0.713461 82.5386 0.815824 81.8699 0.928099 81.2044L1.42113 81.2876C1.53315 80.6237 1.6551 79.963 1.78684 79.3056L1.29659 79.2074C1.42992 78.5422 1.57319 77.8804 1.72625 77.2222L2.21326 77.3354C2.36553 76.6806 2.52757 76.0293 2.69922 75.3818L2.21591 75.2537C2.38981 74.5977 2.5735 73.9455 2.76682 73.2972L3.24597 73.44C3.43813 72.7956 3.63989 72.1551 3.85107 71.5187L3.37651 71.3612C3.59 70.7179 3.81305 70.0786 4.04551 69.4437L4.51503 69.6156C4.74628 68.984 4.9869 68.3566 5.23674 67.7336L4.77268 67.5475C5.02475 66.919 5.28614 66.295 5.55667 65.6756L6.01487 65.8757C6.28414 65.2592 6.56254 64.6473 6.8499 64.0402L6.39798 63.8263C6.68772 63.2142 6.98651 62.6069 7.29418 62.0046L7.73945 62.2321C8.04527 61.6334 8.35995 61.0397 8.6833 60.4511L8.24508 60.2103C8.57115 59.6168 8.90598 59.0284 9.2494 58.4454L9.68022 58.6991C10.0213 58.1201 10.3709 57.5464 10.7289 56.9781L10.3058 56.7116C10.6667 56.1387 11.0361 55.5712 11.4137 55.0095L11.8287 55.2885C12.2036 54.7308 12.5867 54.1787 12.9779 53.6324L12.5714 53.3413C12.9655 52.791 13.3677 52.2464 13.7779 51.7079L14.1757 52.0109C14.5828 51.4764 14.9978 50.9478 15.4206 50.4254L15.0319 50.1109C15.4576 49.5847 15.8911 49.0647 16.3323 48.551L16.7116 48.8767C17.1493 48.3671 17.5945 47.8637 18.0471 47.3667L17.6774 47.0301C18.133 46.5298 18.5961 46.036 19.0664 45.5488L19.4261 45.896C19.8927 45.4126 20.3665 44.9358 20.8474 44.4657L20.4979 44.1082C20.9815 43.6353 21.4723 43.1692 21.9699 42.71L22.309 43.0775C22.8028 42.6219 23.3034 42.1731 23.8107 41.7313L23.4824 41.3543C23.9924 40.9101 24.5092 40.473 25.0324 40.0432L25.3498 40.4295C25.8688 40.0032 26.3942 39.584 26.926 39.1721L26.6198 38.7768C27.1546 38.3625 27.6958 37.9555 28.2432 37.556L28.5379 37.9598C29.0801 37.5641 29.6285 37.1757 30.1827 36.7949L29.8996 36.3828C30.4572 35.9997 31.0208 35.6242 31.5902 35.2564L31.8615 35.6764C32.4253 35.3122 32.9949 34.9556 33.5701 34.6069L33.3109 34.1793C33.889 33.8288 34.4728 33.4861 35.062 33.1513L35.309 33.5861C35.893 33.2543 36.4823 32.9304 37.0769 32.6145L36.8424 32.173C37.439 31.856 38.0409 31.5471 38.6479 31.2464L38.8699 31.6944C39.4718 31.3962 40.0787 31.1062 40.6905 30.8243L40.4813 30.3702C41.0948 30.0876 41.7133 29.8132 42.3364 29.5472L42.5327 30.0071C43.15 29.7436 43.7719 29.4884 44.3984 29.2417L44.2152 28.7765C44.8442 28.5287 45.4777 28.2895 46.1156 28.0588L46.2856 28.529C46.9162 28.301 47.5511 28.0814 48.1901 27.8705L48.0334 27.3957C48.6758 27.1837 49.3223 26.9803 49.9728 26.7857L50.1161 27.2647C50.7581 27.0726 51.4039 26.8892 52.0536 26.7146L51.9238 26.2317C52.5764 26.0562 53.2329 25.8896 53.8929 25.7318L54.0091 26.2181C54.6614 26.0622 55.3173 25.9151 55.9766 25.7769L55.874 25.2875C56.5347 25.149 57.1988 25.0194 57.8662 24.8988L57.9552 25.3908C58.6158 25.2714 59.2797 25.161 59.9467 25.0595L59.8715 24.5652C60.5381 24.4638 61.2077 24.3714 61.8803 24.2881L61.9417 24.7843C62.6083 24.7017 63.2777 24.6281 63.95 24.5637L63.9022 24.066C64.5729 24.0016 65.2464 23.9463 65.9225 23.9002L65.9565 24.399C66.6259 24.3533 67.2978 24.3167 67.9722 24.2891L67.9518 23.7896C68.6256 23.7621 69.3019 23.7436 69.9805 23.7344L69.9873 24.2344C70.3243 24.2298 70.6618 24.2275 71 24.2275C71.3381 24.2275 71.6757 24.2298 72.0127 24.2344L72.0195 23.7344C72.6981 23.7436 73.3743 23.7621 74.0481 23.7896L74.0277 24.2891C74.7021 24.3167 75.3741 24.3533 76.0434 24.399L76.0775 23.9002C76.7536 23.9463 77.427 24.0016 78.0977 24.066L78.05 24.5637C78.7222 24.6281 79.3917 24.7017 80.0582 24.7843L80.1197 24.2881C80.7923 24.3714 81.4619 24.4638 82.1285 24.5652L82.0533 25.0595C82.7203 25.161 83.3842 25.2714 84.0448 25.3908L84.1337 24.8988C84.8011 25.0194 85.4653 25.149 86.126 25.2875L86.0234 25.7769C86.6827 25.9151 87.3386 26.0622 87.9908 26.2181L88.1071 25.7318C88.7671 25.8896 89.4236 26.0562 90.0762 26.2317L89.9464 26.7146C90.596 26.8892 91.2419 27.0726 91.8839 27.2647L92.0272 26.7857C92.6777 26.9803 93.3242 27.1837 93.9666 27.3957L93.8099 27.8705C94.4489 28.0814 95.0838 28.301 95.7144 28.529L95.8844 28.0588C96.5223 28.2895 97.1558 28.5287 97.7848 28.7765L97.6016 29.2417C98.2281 29.4884 98.85 29.7436 99.4673 30.0071L99.6636 29.5472C100.287 29.8132 100.905 30.0876 101.519 30.3702L101.31 30.8243C101.921 31.1062 102.528 31.3962 103.13 31.6944L103.352 31.2464C103.959 31.5471 104.561 31.856 105.158 32.173L104.923 32.6145C105.518 32.9304 106.107 33.2543 106.691 33.5861L106.938 33.1513C107.527 33.4861 108.111 33.8288 108.689 34.1794L108.43 34.6069C109.005 34.9557 109.575 35.3122 110.139 35.6764L110.41 35.2564C110.979 35.6242 111.543 35.9997 112.1 36.3828L111.817 36.7949C112.372 37.1757 112.92 37.5641 113.462 37.9598L113.757 37.556C114.304 37.9555 114.845 38.3625 115.38 38.7768L115.074 39.1721C115.606 39.584 116.131 40.0032 116.65 40.4295L116.968 40.0432C117.491 40.4731 118.008 40.9101 118.518 41.3543L118.189 41.7314C118.697 42.1731 119.197 42.6219 119.691 43.0775L120.03 42.7101C120.528 43.1692 121.018 43.6353 121.502 44.1082L121.153 44.4657C121.633 44.9358 122.107 45.4127 122.574 45.8961L122.934 45.5488C123.404 46.036 123.867 46.5298 124.323 47.0301L123.953 47.3668C124.406 47.8637 124.851 48.3671 125.288 48.8768L125.668 48.551C126.109 49.0647 126.542 49.5847 126.968 50.1109L126.579 50.4254C127.002 50.9478 127.417 51.4764 127.824 52.0109L128.222 51.7079C128.632 52.2465 129.035 52.791 129.429 53.3413L129.022 53.6324C129.413 54.1787 129.796 54.7308 130.171 55.2885L130.586 55.0095C130.964 55.5713 131.333 56.1387 131.694 56.7116L131.271 56.9781C131.629 57.5464 131.979 58.1201 132.32 58.6991L132.751 58.4454C133.094 59.0284 133.429 59.6168 133.755 60.2103L133.317 60.4511C133.64 61.0397 133.955 61.6334 134.261 62.2321L134.706 62.0046C135.013 62.6069 135.312 63.2142 135.602 63.8263L135.15 64.0402C135.437 64.6473 135.716 65.2592 135.985 65.8757L136.443 65.6756C136.714 66.295 136.975 66.919 137.227 67.5475L136.763 67.7336C137.013 68.3566 137.254 68.984 137.485 69.6156L137.954 69.4437C138.187 70.0786 138.41 70.7179 138.623 71.3612L138.149 71.5187C138.36 72.1551 138.562 72.7956 138.754 73.44L139.233 73.2972C139.426 73.9454 139.61 74.5977 139.784 75.2537L139.301 75.3818C139.472 76.0293 139.634 76.6806 139.787 77.3354L140.274 77.2221C140.427 77.8804 140.57 78.5421 140.703 79.2074L140.213 79.3056C140.345 79.963 140.467 80.6237 140.579 81.2876L141.072 81.2044C141.184 81.8699 141.287 82.5386 141.379 83.2103L140.883 83.2784C140.975 83.9433 141.056 84.6113 141.128 85.2822L141.625 85.2293C141.696 85.8993 141.757 86.5722 141.809 87.2478L141.31 87.2855C141.361 87.9542 141.401 88.6255 141.432 89.2994L141.931 89.2768Z" stroke="#3B4174" stroke-dasharray="2 2"/>
</svg>

