<svg width="16" height="19" viewBox="0 0 16 19" fill="none" xmlns="http://www.w3.org/2000/svg">
<path d="M9 1C9 0.447715 8.55228 1.84596e-08 8 0C7.44772 -1.84596e-08 7 0.447715 7 1L9 1ZM7.29289 18.2144C7.68342 18.6049 8.31658 18.6049 8.70711 18.2144L15.0711 11.8504C15.4616 11.4599 15.4616 10.8267 15.0711 10.4362C14.6805 10.0457 14.0474 10.0457 13.6569 10.4362L8 16.093L2.34315 10.4362C1.95262 10.0457 1.31946 10.0457 0.928932 10.4362C0.538407 10.8267 0.538407 11.4599 0.928932 11.8504L7.29289 18.2144ZM7 1L7 17.5072L9 17.5072L9 1L7 1Z" fill="#020034"/>
</svg>

