<svg width="19" height="15" viewBox="0 0 19 15" fill="none" xmlns="http://www.w3.org/2000/svg">
<path d="M18 6.5C18.5523 6.5 19 6.94772 19 7.5C19 8.05228 18.5523 8.5 18 8.5L18 6.5ZM0.292893 8.20711C-0.0976314 7.81659 -0.0976315 7.18342 0.292892 6.7929L6.65685 0.428934C7.04738 0.0384097 7.68054 0.0384096 8.07107 0.428934C8.46159 0.819458 8.46159 1.45262 8.07107 1.84315L2.41421 7.5L8.07107 13.1569C8.46159 13.5474 8.46159 14.1805 8.07107 14.5711C7.68055 14.9616 7.04738 14.9616 6.65686 14.5711L0.292893 8.20711ZM18 8.5L1 8.5L1 6.5L18 6.5L18 8.5Z" fill="#020034"/>
</svg>

