<svg width="60" height="60" viewBox="0 0 60 60" fill="none" xmlns="http://www.w3.org/2000/svg">
<circle cx="30" cy="30" r="30" fill="#020034"/>
<mask id="mask0_948_2004" style="mask-type:alpha" maskUnits="userSpaceOnUse" x="10" y="11" width="40" height="40">
<rect x="10" y="11" width="40" height="40" fill="#D9D9D9"/>
</mask>
<g mask="url(#mask0_948_2004)">
<path d="M30 37.542C30.4447 37.542 30.8267 37.382 31.146 37.062C31.4653 36.7427 31.625 36.361 31.625 35.917C31.625 35.4723 31.4653 35.0903 31.146 34.771C30.8267 34.4517 30.4447 34.292 30 34.292C29.5553 34.292 29.1733 34.4517 28.854 34.771C28.5347 35.0903 28.375 35.4723 28.375 35.917C28.375 36.361 28.5347 36.7427 28.854 37.062C29.1733 37.382 29.5553 37.542 30 37.542ZM28.875 32.375H31.125C31.125 31.903 31.132 31.514 31.146 31.208C31.16 30.9027 31.2363 30.6527 31.375 30.458C31.4863 30.236 31.639 30.0207 31.833 29.812C32.0277 29.604 32.375 29.264 32.875 28.792C33.4863 28.2087 33.9307 27.639 34.208 27.083C34.486 26.5277 34.625 25.9167 34.625 25.25C34.625 24 34.2153 23 33.396 22.25C32.5767 21.5 31.4723 21.125 30.083 21.125C28.9997 21.125 28.0277 21.4237 27.167 22.021C26.3057 22.6183 25.7223 23.417 25.417 24.417L27.417 25.208C27.639 24.6247 27.986 24.1597 28.458 23.813C28.9307 23.4657 29.4723 23.292 30.083 23.292C30.7777 23.292 31.3333 23.4793 31.75 23.854C32.1667 24.2293 32.375 24.7223 32.375 25.333C32.375 25.8057 32.2707 26.2223 32.062 26.583C31.854 26.9443 31.4723 27.361 30.917 27.833C30.4443 28.2497 30.076 28.611 29.812 28.917C29.5487 29.2223 29.3473 29.514 29.208 29.792C29.0973 30.0693 29.014 30.3957 28.958 30.771C28.9027 31.1457 28.875 31.6803 28.875 32.375ZM30 44C33.5833 40.722 36.236 37.7497 37.958 35.083C39.6807 32.4163 40.542 30.0553 40.542 28C40.542 24.8053 39.528 22.1943 37.5 20.167C35.472 18.139 32.972 17.125 30 17.125C27.028 17.125 24.528 18.139 22.5 20.167C20.472 22.1943 19.458 24.8053 19.458 28C19.458 30.0553 20.333 32.4163 22.083 35.083C23.833 37.7497 26.472 40.722 30 44ZM30 47.667C25.528 43.861 22.1877 40.326 19.979 37.062C17.771 33.7987 16.667 30.778 16.667 28C16.667 23.8333 18.0073 20.514 20.688 18.042C23.368 15.5693 26.472 14.333 30 14.333C33.528 14.333 36.632 15.5693 39.312 18.042C41.9927 20.514 43.333 23.8333 43.333 28C43.333 30.778 42.229 33.7987 40.021 37.062C37.8123 40.326 34.472 43.861 30 47.667Z" fill="white"/>
</g>
</svg>

