<svg width="122" height="62" viewBox="0 0 122 62" fill="none" xmlns="http://www.w3.org/2000/svg">
<g clip-path="url(#clip0_767_470)">
<path d="M80.7657 37.2C80.5953 38.0493 80.2545 39.0685 79.5729 39.7479C79.0617 40.4274 78.2098 41.1068 77.3578 41.6164C76.6763 41.9561 75.8243 42.2959 74.9724 42.4657C74.1204 42.6356 73.2684 42.4657 72.5869 42.2959C71.7349 42.126 71.0534 41.7863 70.3718 41.2767C69.0087 40.0876 68.1567 38.5589 67.9863 36.8603C67.9863 36.0109 67.9863 35.3315 68.3271 34.4822C68.6679 33.6329 69.0087 32.9534 69.5198 32.4438C70.031 31.7644 70.883 31.2548 71.5645 30.9151C72.2461 30.5753 73.0981 30.2356 73.7796 30.2356C74.4612 30.2356 75.3131 30.2356 75.9947 30.5753C76.6763 30.915 77.3578 31.2548 77.869 31.7644C78.5506 32.4438 79.0617 33.1233 79.4025 33.8027L79.9137 34.8219L72.4165 38.7287C72.7573 39.2383 73.4388 39.5781 73.95 39.7479C74.6316 39.9178 75.3131 39.7479 75.8243 39.4082C76.3355 39.2383 76.6763 38.7287 77.0171 38.389C77.1874 37.8794 77.3578 37.5397 77.5282 37.0301L80.7657 37.2ZM75.6539 33.9726C75.4835 33.463 74.9724 33.1233 74.2908 32.7835C73.7796 32.6137 73.0981 32.6137 72.5869 32.9534C72.2461 33.1233 71.9053 33.2931 71.7349 33.6329C71.5645 33.8027 71.3941 34.1424 71.2238 34.4822C71.0534 34.8219 71.0534 34.9918 71.0534 35.3315C71.0534 35.6712 71.2238 35.8411 71.2238 36.1808L75.6539 33.9726Z" fill="black"/>
<path d="M89.4554 33.2931C89.285 33.9726 89.1146 34.652 88.6034 35.3315C88.0922 35.8411 87.5811 36.3507 86.8995 36.6904C86.3883 36.8603 85.8772 37.2 85.366 37.2C84.8548 37.3698 84.3436 37.3698 83.8325 37.2C83.3213 37.0301 82.8101 36.8603 82.4693 36.6904C81.9582 36.3507 81.6174 36.0109 81.447 35.5014C81.1062 34.9918 80.9358 34.4822 80.9358 33.8027C80.9358 33.2931 81.1062 32.7835 81.2766 32.274C81.447 31.7644 81.7878 31.4246 82.2989 30.9151C82.6397 30.5753 83.1509 30.0657 83.6621 29.726C84.1732 29.3863 84.6844 29.0466 85.1956 28.7068C85.7068 28.3671 86.2179 28.1972 86.5587 27.8575C86.2179 27.3479 85.8772 27.0082 85.1956 26.8383C84.6844 26.6685 84.0029 26.8383 83.4917 27.1781C82.9805 27.5178 82.4693 27.8575 82.2989 28.1972C81.9582 28.7068 81.7878 29.2164 81.6174 29.726L79.0615 28.8767C79.4023 28.0274 79.9135 27.1781 80.4247 26.4986C81.1062 25.8192 81.7878 25.1397 82.6397 24.8C83.4917 24.2904 84.3436 24.1205 85.1956 23.9507C85.8772 23.7808 86.5587 23.9507 87.2403 24.2904C87.9219 24.6301 88.433 24.9698 88.9442 25.6493C89.4554 26.3288 89.9665 27.0082 90.3073 27.8575L93.204 33.1233L90.3073 34.652L89.4554 33.2931ZM86.8995 30.4055C86.7291 30.5753 86.3883 30.7452 86.0476 30.9151C85.7068 31.0849 85.366 31.4246 85.0252 31.5945C84.6844 31.7644 84.514 32.1041 84.3436 32.4438C84.1733 32.7835 84.1732 33.1233 84.514 33.463C84.6844 33.8027 85.0252 34.1425 85.5364 34.1425C85.8772 34.1425 86.3883 34.1425 86.7291 33.8027C87.0699 33.6329 87.2403 33.463 87.5811 33.1233C87.7515 32.9534 88.0922 32.6137 88.2626 32.274C88.433 31.9342 88.433 31.7644 88.433 31.4246C88.433 31.0849 88.2626 30.7452 88.2626 30.4055L87.9219 29.726L86.8995 30.4055Z" fill="black"/>
<path d="M88.9443 21.7425L92.1818 20.0439L93.0337 21.7425C93.0337 21.063 93.2041 20.2137 93.5449 19.7041C93.8857 19.0247 94.3968 18.5151 95.0784 18.3452C95.2488 18.1754 95.4192 18.1754 95.5896 18.0055C95.76 18.0055 95.9304 17.8356 96.1008 17.8356L97.6343 20.7233C97.2935 20.7233 97.1231 20.8932 96.9527 20.8932C96.7823 21.063 96.4415 21.063 96.2712 21.2329C95.76 21.4028 95.2488 21.9123 94.908 22.2521C94.5672 22.5918 94.5672 22.9315 94.3969 23.4411C94.3969 23.9507 94.3968 24.2904 94.5672 24.8C94.7376 25.3096 94.908 25.8192 95.2488 26.3288L97.6343 30.7452L94.3969 32.4439L88.9443 21.7425Z" fill="black"/>
<path d="M106.835 15.6274L103.939 17.1562L105.813 20.5534C105.983 20.8932 106.154 21.063 106.324 21.4028C106.495 21.5726 106.665 21.7425 106.835 21.9124C107.006 22.0822 107.347 22.0822 107.517 22.0822C107.858 22.0822 108.198 21.9124 108.369 21.7425C108.539 21.5726 108.88 21.4028 109.05 21.4028C109.221 21.2329 109.391 21.063 109.562 20.8932L110.925 23.611C110.584 23.9507 110.243 24.2904 109.902 24.4603C109.562 24.6302 109.221 24.9699 108.88 25.1398C108.369 25.4795 107.858 25.6493 107.347 25.8192C106.835 25.9891 106.324 25.9891 105.813 25.9891C105.302 25.9891 104.961 25.6493 104.45 25.4795C103.939 25.1398 103.598 24.6302 103.428 24.1206L100.872 19.1945L98.827 20.2137L97.4639 17.6658L99.5086 16.4767L98.3158 14.0987L101.553 12.4L102.746 14.7781L105.643 13.2493L106.835 15.6274Z" fill="black"/>
<path d="M106.494 4.92603L110.413 12.2301C110.413 11.8904 110.413 11.7205 110.413 11.3808C110.413 11.0411 110.584 10.8712 110.754 10.5315C110.924 10.1918 111.095 10.0219 111.436 9.68219C111.776 9.34246 112.117 9.1726 112.458 9.00274C113.14 8.66301 113.821 8.32329 114.673 8.32329C115.355 8.32329 115.866 8.49315 116.377 8.66301C116.888 9.00274 117.399 9.34246 117.74 9.85205C118.251 10.3616 118.592 11.0411 118.933 11.7205L122 17.4959L118.762 19.1945L116.036 14.0986C115.866 13.9288 115.695 13.589 115.525 13.2493C115.355 12.9096 115.184 12.7397 114.843 12.4C114.332 11.8904 113.48 11.8904 112.969 12.2301C112.628 12.4 112.288 12.7397 112.117 12.9096C111.947 13.2493 111.776 13.4192 111.776 13.7589C111.776 14.0986 111.776 14.4384 111.947 14.7781C112.117 15.2877 112.288 15.6274 112.458 15.9671L115.184 21.063L111.947 22.7616L103.257 6.45479L106.494 4.92603Z" fill="black"/>
<path d="M23.1733 56.3945C23.3437 55.8849 23.5141 55.3753 23.8549 54.8658C24.5364 54.0164 25.5588 53.5069 26.5811 53.337C27.7739 53.1671 28.7962 53.5069 29.6482 54.1863C30.5001 54.8658 31.0113 55.8849 31.1817 56.9041C31.3521 58.0932 31.0113 59.1123 30.3297 59.9616C29.6482 60.811 28.6258 61.3206 27.6035 61.4904C26.4108 61.6603 25.3884 61.3206 24.5364 60.6411C23.6845 59.9616 23.1733 58.9425 23.0029 57.9233C23.0029 57.4137 23.0029 56.9041 23.1733 56.3945Z" fill="black"/>
<path d="M103.598 9.68222L8.00864 62L6.64551 59.4521L102.235 7.13428L103.598 9.68222Z" fill="black"/>
<path d="M0 46.0329L3.23743 44.3343L4.08939 46.0329C4.08939 45.3534 4.25978 44.674 4.43017 43.9945C4.77095 43.3151 5.28212 42.8055 5.96369 42.4658C6.13408 42.2959 6.30447 42.2959 6.47486 42.126C6.64525 42.126 6.81564 41.9562 6.98603 41.9562L8.51955 44.8438C8.17877 44.8438 8.00838 45.0137 7.83799 45.0137C7.6676 45.1836 7.32682 45.1836 7.15642 45.3534C6.81564 45.5233 6.30447 45.863 5.96369 46.3726C5.7933 46.7123 5.62291 47.0521 5.45251 47.5617C5.45251 48.0712 5.45251 48.411 5.7933 48.9206C5.96369 49.4301 6.30447 49.9397 6.47486 50.4493L8.86034 54.6959L5.62291 56.3945L0 46.0329Z" fill="black"/>
<path d="M22.4918 44.674C22.3214 45.5233 21.9806 46.5425 21.4694 47.2219C20.9582 48.0712 20.1063 48.5808 19.2543 49.0904C18.5728 49.6 17.7208 49.7699 16.8688 49.9397C16.0169 50.1096 15.1649 50.1096 14.4834 49.7699C13.6314 49.6 12.9499 49.2603 12.2683 48.7507C10.9052 47.7315 10.0532 46.0329 9.88281 44.3343C9.88281 43.4849 9.88281 42.6356 10.2236 41.9562C10.5644 41.1069 10.9052 40.4274 11.4163 39.9178C11.9275 39.2384 12.6091 38.7288 13.461 38.2192C14.1426 37.8795 14.8242 37.5397 15.6761 37.5397C16.3577 37.5397 17.2096 37.5397 17.8912 37.7096C18.5728 38.0493 19.2543 38.389 19.7655 38.8986C20.4471 39.4082 20.9582 40.2575 21.299 40.937L21.8102 41.9562L14.4834 46.0329C14.8242 46.5425 15.5057 46.8822 16.1873 47.0521C16.8688 47.2219 17.5504 47.0521 18.0616 46.7123C18.5728 46.5425 18.9135 46.0329 19.2543 45.6932C19.4247 45.1836 19.5951 44.8438 19.7655 44.3343L22.4918 44.674ZM17.2096 41.6164C17.0392 41.1069 16.5281 40.7671 16.0169 40.5973C15.5057 40.4274 14.8242 40.4274 14.313 40.7671C13.9722 40.937 13.6314 41.1069 13.461 41.4466C13.2906 41.6164 13.1202 41.9562 12.9499 42.2959C12.7795 42.6356 12.7795 42.8055 12.7795 43.1452C12.7795 43.4849 12.9499 43.6548 12.9499 43.9945L17.2096 41.6164Z" fill="black"/>
<path d="M27.4333 34.8219C26.7518 34.4822 25.7294 34.4822 25.0479 34.9918C24.7071 35.1617 24.5367 35.3315 24.3663 35.6713C24.1959 36.011 24.1959 36.3507 24.3663 36.5206C24.5367 36.6904 24.7071 36.8603 25.0479 36.8603C25.3886 36.8603 25.8998 36.6904 26.2406 36.6904L27.7741 36.3507C28.2853 36.1808 28.7965 36.1808 29.3076 36.1808C29.8188 36.1808 30.33 36.3507 30.8412 36.5206C31.3523 36.8603 31.8635 37.3699 32.0339 37.8795C32.3747 38.3891 32.5451 39.0685 32.5451 39.748C32.5451 40.2576 32.3747 40.937 32.0339 41.4466C31.6931 41.9562 31.3523 42.4658 30.8412 42.8055C30.33 43.1452 29.8188 43.6548 29.3076 43.8247C28.6261 44.1644 27.7741 44.5041 26.9222 44.674C26.0702 44.8439 25.2183 44.8439 24.3663 44.674L25.0479 41.4466C25.559 41.6165 26.0702 41.7863 26.5814 41.7863C27.0926 41.7863 27.6037 41.6165 27.9445 41.4466C28.2853 41.2767 28.6261 41.1069 28.7965 40.7671C28.9669 40.5973 29.1372 40.2576 28.9669 39.9178C28.7965 39.5781 28.4557 39.5781 28.2853 39.5781C27.9445 39.5781 27.4333 39.748 27.0926 39.748L25.559 39.9178C25.0479 40.0877 24.5367 40.0877 24.0255 40.0877C23.5143 40.0877 23.0032 39.9178 22.492 39.748C21.9808 39.4082 21.4697 38.8987 21.2993 38.3891C20.9585 37.8795 20.7881 37.2 20.7881 36.6904C20.7881 36.1808 20.9585 35.5014 21.1289 34.9918C21.4696 34.4822 21.8104 33.9726 22.1512 33.6329C22.6624 33.2932 23.1736 32.7836 23.6847 32.6137C24.3663 32.274 25.2183 31.9343 25.8998 31.7644C26.7518 31.5945 27.4333 31.5945 28.2853 31.9343L27.4333 34.8219Z" fill="black"/>
<path d="M27.2622 26.6685C26.751 25.6493 27.0918 24.4603 28.1141 23.7808C29.1365 23.1014 30.3292 23.6109 31.0108 24.6301C31.522 25.6493 31.1812 26.8383 30.1588 27.5178C29.6477 27.8575 29.1365 27.8575 28.6253 27.6877C27.9438 27.6877 27.4326 27.1781 27.2622 26.6685ZM29.3069 29.8959L32.5443 28.1972L38.3376 38.5589L35.1002 40.2575L29.3069 29.8959Z" fill="black"/>
<path d="M31.1816 21.4027L34.4191 19.7041L43.2794 35.6712L40.042 37.3699L31.1816 21.4027Z" fill="black"/>
<path d="M37.145 21.2329C36.6338 20.2137 36.9746 19.0247 37.997 18.3452C39.0193 17.8356 40.212 18.1753 40.8936 19.1945C41.4048 20.2137 41.064 21.4027 40.0417 22.0822C39.5305 22.4219 39.0193 22.4219 38.5081 22.2521C37.997 22.0822 37.4858 21.7425 37.145 21.2329ZM39.3601 24.2904L42.5975 22.5918L48.3908 32.9534L45.1534 34.6521L39.3601 24.2904Z" fill="black"/>
<path d="M58.4439 24.8C58.2735 25.6493 57.9327 26.6685 57.4216 27.348C56.9104 28.1973 56.0584 28.7069 55.2065 29.2165C54.5249 29.726 53.673 29.8959 52.821 30.0658C51.969 30.2356 51.1171 30.2356 50.4355 29.8959C49.5836 29.726 48.902 29.3863 48.2204 28.8767C46.8573 27.8576 46.0054 26.1589 45.835 24.4603C45.835 23.611 45.835 22.7617 46.1757 22.0822C46.5165 21.2329 46.8573 20.5534 47.3685 20.0439C47.8797 19.3644 48.5612 18.8548 49.4132 18.3452C50.0947 18.0055 50.7763 17.6658 51.6283 17.6658C52.3098 17.6658 53.1618 17.6658 53.8433 17.8356C54.5249 18.1754 55.2065 18.5151 55.7176 19.0247C56.3992 19.5343 56.9104 20.3836 57.2512 21.063L57.7623 22.0822L50.4355 26.1589C50.7763 26.6685 51.4579 27.0082 52.1394 27.1781C52.821 27.348 53.5026 27.1781 54.0137 26.8384C54.5249 26.6685 54.8657 26.1589 55.2065 25.8192C55.3769 25.3096 55.5473 24.9699 55.7176 24.4603L58.4439 24.8ZM53.3322 21.9123C52.9914 21.4028 52.6506 21.063 51.969 20.8932C51.4579 20.7233 50.7763 20.7233 50.2651 21.063C49.9243 21.2329 49.5836 21.4028 49.4132 21.7425C49.2428 21.9123 49.0724 22.2521 48.902 22.5918C48.7316 22.9315 48.7316 23.1014 48.7316 23.4411C48.7316 23.7808 48.902 23.9507 48.902 24.2904L53.3322 21.9123Z" fill="black"/>
<path d="M55.207 15.6274L58.2741 13.9287L59.126 15.2876C59.126 14.9479 59.126 14.7781 59.2964 14.4383C59.2964 14.0986 59.4668 13.7589 59.6372 13.589C59.8076 13.2493 59.978 12.9096 60.3188 12.7397C60.6595 12.4 61.0003 12.2301 61.3411 12.0603C62.0227 11.7205 62.7042 11.3808 63.5562 11.3808C64.2378 11.3808 64.7489 11.5507 65.2601 11.7205C65.7713 12.0603 66.2824 12.4 66.6232 12.9096C67.1344 13.4192 67.4752 14.0986 67.816 14.7781L70.883 20.5534L67.6456 22.252L64.9193 17.1561C64.7489 16.8164 64.5785 16.4767 64.4081 16.3068C64.2378 15.9671 64.0674 15.7972 63.7266 15.4575C63.2154 14.9479 62.3635 14.9479 61.8523 15.2876C61.5115 15.4575 61.1707 15.7972 61.0003 16.137C60.8299 16.4767 60.6595 16.6466 60.6595 16.9863C60.6595 17.326 60.6595 17.6657 60.8299 18.0055C61.0003 18.3452 61.1707 18.6849 61.3411 19.0246L64.2378 24.1205L61.0003 25.8192L55.207 15.6274Z" fill="black"/>
<path d="M75.3127 8.83287C74.9719 8.66301 74.6311 8.66301 74.2903 8.66301C73.9495 8.66301 73.6088 8.83287 73.268 9.00274C72.5864 9.34246 72.0752 10.0219 71.7345 10.7014C71.5641 11.5507 71.7345 12.2301 72.0752 12.9096C72.416 13.589 73.0976 14.0986 73.7792 14.4384C74.6311 14.6082 75.3127 14.6082 75.9942 14.0986C76.335 13.9288 76.6758 13.7589 76.8462 13.4192C77.0166 13.0794 77.187 12.9096 77.187 12.5699L80.5948 13.589C80.4244 14.2685 79.9132 14.9479 79.4021 15.6274C78.8909 16.137 78.3797 16.6466 77.6981 16.9863C77.0166 17.4959 76.1646 17.6658 75.3127 17.8356C74.4607 18.0055 73.6088 18.0055 72.9272 17.6657C72.0752 17.4959 71.3937 17.1562 70.7121 16.6466C70.0306 16.137 69.5194 15.4575 69.0082 14.6082C68.497 13.9288 68.3266 13.0794 68.1562 12.0603C68.1562 11.211 68.1563 10.3616 68.497 9.68219C68.8378 8.83287 69.1786 8.15342 69.6898 7.64383C70.2009 6.96438 70.8825 6.45479 71.7345 5.9452C72.416 5.60548 73.0976 5.26575 73.7792 5.26575C74.6311 5.09589 75.3127 5.09589 76.1646 5.43561L75.3127 8.83287Z" fill="black"/>
<path d="M90.8184 7.13425C90.648 7.98356 90.3072 9.00274 89.796 9.68219C89.2849 10.5315 88.4329 11.0411 87.581 11.5507C86.8994 12.0603 86.0474 12.2301 85.1955 12.4C84.3435 12.5699 83.4916 12.5699 82.81 12.2301C81.9581 12.0603 81.2765 11.7205 80.5949 11.211C79.9134 10.7014 79.4022 10.0219 78.891 9.1726C78.3798 8.49315 78.2095 7.64384 78.0391 6.79452C78.0391 5.94521 78.0391 5.09589 78.3798 4.41644C78.7206 3.56712 79.0614 2.88767 79.5726 2.37808C80.0838 1.69863 80.7653 1.18904 81.6173 0.679452C82.2988 0.339726 82.9804 0 83.8324 0C84.5139 0 85.3659 0 86.0474 0.169863C86.729 0.509589 87.4106 0.849315 87.9217 1.3589C88.6033 1.86849 89.1145 2.71781 89.4553 3.39726L89.9664 4.41644L82.6396 8.49315C82.9804 9.00274 83.662 9.34247 84.3435 9.51233C85.0251 9.68219 85.7067 9.51233 86.2178 9.1726C86.729 9.00274 87.0698 8.49315 87.4106 8.15343C87.581 7.64384 87.7514 7.30411 87.9217 6.79452L90.8184 7.13425ZM85.5363 4.07671C85.1955 3.56712 84.8547 3.2274 84.1731 3.05753C83.662 2.88767 82.9804 2.88767 82.4692 3.2274C82.2988 3.39726 81.9581 3.56712 81.7877 3.90685C81.6173 4.07671 81.4469 4.41644 81.2765 4.75616C81.1061 5.09589 81.1061 5.26575 81.1061 5.60548C81.1061 5.94521 81.2765 6.11507 81.2765 6.45479L85.5363 4.07671Z" fill="black"/>
</g>
<defs>
<clipPath id="clip0_767_470">
<rect width="122" height="62" fill="white"/>
</clipPath>
</defs>
</svg>
