<svg width="50" height="50" viewBox="0 0 50 50" fill="none" xmlns="http://www.w3.org/2000/svg">
<circle cx="24.5876" cy="24.5876" r="24.5876" fill="#F3C857"/>
<mask id="mask0_780_890" style="mask-type:alpha" maskUnits="userSpaceOnUse" x="9" y="11" width="31" height="30">
<rect x="9.17578" y="11" width="30" height="30" fill="#D9D9D9"/>
</mask>
<g mask="url(#mask0_780_890)">
<path d="M24.1758 39.75L15.1758 33C14.8633 32.7708 14.6187 32.4792 14.442 32.125C14.2645 31.7708 14.1758 31.3958 14.1758 31V16C14.1758 15.3125 14.4208 14.7237 14.9108 14.2337C15.3999 13.7446 15.9883 13.5 16.6758 13.5H31.6758C32.3633 13.5 32.952 13.7446 33.442 14.2337C33.9312 14.7237 34.1758 15.3125 34.1758 16V31C34.1758 31.3958 34.0874 31.7708 33.9108 32.125C33.7333 32.4792 33.4883 32.7708 33.1758 33L24.1758 39.75ZM24.1758 36.625L31.6758 31V16H16.6758V31L24.1758 36.625ZM22.8633 29.75L29.9258 22.6875L28.1758 20.875L22.8633 26.1875L20.2383 23.5625L18.4258 25.3125L22.8633 29.75Z" fill="white"/>
</g>
</svg>

