<svg width="8" height="108" viewBox="0 0 8 108" fill="none" xmlns="http://www.w3.org/2000/svg">
<path opacity="0.2" d="M3.88771 1.08501C3.79008 0.987381 3.63179 0.987381 3.53416 1.08501L1.94317 2.676C1.84553 2.77364 1.84553 2.93192 1.94317 3.02956C2.0408 3.12718 2.19909 3.12718 2.29672 3.02956L3.71093 1.61534L5.12515 3.02956C5.22278 3.12718 5.38107 3.12718 5.4787 3.02956C5.57633 2.93192 5.57633 2.77364 5.4787 2.676L3.88771 1.08501ZM3.96094 107.217L3.96094 106.198L3.46094 106.198L3.46094 107.217L3.96094 107.217ZM3.96094 104.161L3.96094 102.123L3.46094 102.123L3.46094 104.161L3.96094 104.161ZM3.96094 100.085L3.96094 98.0479L3.46094 98.0479L3.46094 100.085L3.96094 100.085ZM3.96094 96.0103L3.96094 93.9727L3.46094 93.9727L3.46094 96.0103L3.96094 96.0103ZM3.96094 91.9351L3.96094 89.8975L3.46094 89.8975L3.46094 91.9351L3.96094 91.9351ZM3.96094 87.8599L3.96094 85.8223L3.46094 85.8223L3.46094 87.8599L3.96094 87.8599ZM3.96094 83.7847L3.96094 81.7471L3.46094 81.7471L3.46094 83.7847L3.96094 83.7847ZM3.96094 79.7095L3.96094 77.6719L3.46094 77.6719L3.46094 79.7095L3.96094 79.7095ZM3.96094 75.6343L3.96094 73.5967L3.46094 73.5967L3.46094 75.6343L3.96094 75.6343ZM3.96094 71.5591L3.96094 69.5215L3.46094 69.5215L3.46094 71.5591L3.96094 71.5591ZM3.96094 67.4839L3.96094 65.4463L3.46094 65.4463L3.46094 67.4839L3.96094 67.4839ZM3.96094 63.4087L3.96094 61.3711L3.46094 61.3711L3.46094 63.4087L3.96094 63.4087ZM3.96094 59.3335L3.96094 57.2959L3.46094 57.2959L3.46094 59.3335L3.96094 59.3335ZM3.96094 55.2583L3.96094 53.2207L3.46094 53.2207L3.46094 55.2583L3.96094 55.2583ZM3.96094 51.1831L3.96093 49.1455L3.46093 49.1455L3.46094 51.1831L3.96094 51.1831ZM3.96093 47.1078L3.96093 45.0703L3.46093 45.0703L3.46093 47.1078L3.96093 47.1078ZM3.96093 43.0326L3.96093 40.995L3.46093 40.995L3.46093 43.0326L3.96093 43.0326ZM3.96093 38.9574L3.96093 36.9198L3.46093 36.9198L3.46093 38.9574L3.96093 38.9574ZM3.96093 34.8822L3.96093 32.8446L3.46093 32.8446L3.46093 34.8822L3.96093 34.8822ZM3.96093 30.807L3.96093 28.7694L3.46093 28.7694L3.46093 30.807L3.96093 30.807ZM3.96093 26.7318L3.96093 24.6942L3.46093 24.6942L3.46093 26.7318L3.96093 26.7318ZM3.96093 22.6566L3.96093 20.619L3.46093 20.619L3.46093 22.6566L3.96093 22.6566ZM3.96093 18.5814L3.96093 16.5438L3.46093 16.5438L3.46093 18.5814L3.96093 18.5814ZM3.96093 14.5062L3.96093 12.4686L3.46093 12.4686L3.46093 14.5062L3.96093 14.5062ZM3.96093 10.431L3.96093 8.39336L3.46093 8.39336L3.46093 10.431L3.96093 10.431ZM3.96093 6.35575L3.96093 4.31815L3.46093 4.31815L3.46093 6.35575L3.96093 6.35575ZM3.96093 2.28054L3.96093 1.26179L3.46093 1.26179L3.46093 2.28054L3.96093 2.28054ZM4.06449 0.908234C3.86922 0.712975 3.55264 0.712975 3.35738 0.908234L0.175399 4.09022C-0.0198631 4.28548 -0.0198631 4.60206 0.175399 4.79733C0.370661 4.99258 0.687244 4.99258 0.882506 4.79733L3.71093 1.96889L6.53936 4.79733C6.73462 4.99258 7.0512 4.99258 7.24647 4.79732C7.44173 4.60206 7.44173 4.28548 7.24647 4.09022L4.06449 0.908234ZM4.21094 107.217L4.21094 106.198L3.21094 106.198L3.21094 107.217L4.21094 107.217ZM4.21094 104.161L4.21094 102.123L3.21094 102.123L3.21094 104.161L4.21094 104.161ZM4.21094 100.085L4.21094 98.0479L3.21094 98.0479L3.21094 100.085L4.21094 100.085ZM4.21094 96.0103L4.21094 93.9727L3.21094 93.9727L3.21094 96.0103L4.21094 96.0103ZM4.21094 91.9351L4.21094 89.8975L3.21094 89.8975L3.21094 91.9351L4.21094 91.9351ZM4.21094 87.8599L4.21094 85.8223L3.21094 85.8223L3.21094 87.8599L4.21094 87.8599ZM4.21094 83.7847L4.21094 81.7471L3.21094 81.7471L3.21094 83.7847L4.21094 83.7847ZM4.21094 79.7095L4.21094 77.6719L3.21094 77.6719L3.21094 79.7095L4.21094 79.7095ZM4.21094 75.6343L4.21094 73.5967L3.21094 73.5967L3.21094 75.6343L4.21094 75.6343ZM4.21094 71.5591L4.21094 69.5215L3.21094 69.5215L3.21094 71.5591L4.21094 71.5591ZM4.21094 67.4839L4.21094 65.4463L3.21094 65.4463L3.21094 67.4839L4.21094 67.4839ZM4.21094 63.4087L4.21094 61.3711L3.21094 61.3711L3.21094 63.4087L4.21094 63.4087ZM4.21094 59.3335L4.21094 57.2959L3.21094 57.2959L3.21094 59.3335L4.21094 59.3335ZM4.21094 55.2583L4.21094 53.2207L3.21094 53.2207L3.21094 55.2583L4.21094 55.2583ZM4.21094 51.1831L4.21093 49.1455L3.21093 49.1455L3.21094 51.1831L4.21094 51.1831ZM4.21093 47.1078L4.21093 45.0703L3.21093 45.0703L3.21093 47.1078L4.21093 47.1078ZM4.21093 43.0326L4.21093 40.995L3.21093 40.995L3.21093 43.0326L4.21093 43.0326ZM4.21093 38.9574L4.21093 36.9198L3.21093 36.9198L3.21093 38.9574L4.21093 38.9574ZM4.21093 34.8822L4.21093 32.8446L3.21093 32.8446L3.21093 34.8822L4.21093 34.8822ZM4.21093 30.807L4.21093 28.7694L3.21093 28.7694L3.21093 30.807L4.21093 30.807ZM4.21093 26.7318L4.21093 24.6942L3.21093 24.6942L3.21093 26.7318L4.21093 26.7318ZM4.21093 22.6566L4.21093 20.619L3.21093 20.619L3.21093 22.6566L4.21093 22.6566ZM4.21093 18.5814L4.21093 16.5438L3.21093 16.5438L3.21093 18.5814L4.21093 18.5814ZM4.21093 14.5062L4.21093 12.4686L3.21093 12.4686L3.21093 14.5062L4.21093 14.5062ZM4.21093 10.431L4.21093 8.39336L3.21093 8.39336L3.21093 10.431L4.21093 10.431ZM4.21093 6.35575L4.21093 4.31815L3.21093 4.31815L3.21093 6.35575L4.21093 6.35575ZM4.21093 2.28054L4.21093 1.26179L3.21093 1.26179L3.21093 2.28054L4.21093 2.28054Z" fill="#020034"/>
</svg>

