<svg width="16" height="440" viewBox="0 0 16 440" fill="none" xmlns="http://www.w3.org/2000/svg">
<path opacity="0.2" d="M8.35355 0.646447C8.15829 0.451184 7.84171 0.451184 7.64645 0.646447L4.46447 3.82843C4.2692 4.02369 4.2692 4.34027 4.46447 4.53553C4.65973 4.7308 4.97631 4.7308 5.17157 4.53553L8 1.70711L10.8284 4.53553C11.0237 4.7308 11.3403 4.7308 11.5355 4.53553C11.7308 4.34027 11.7308 4.02369 11.5355 3.82843L8.35355 0.646447ZM7.5 1L7.5 2.50342L8.5 2.50342L8.5 1L7.5 1ZM7.5 5.51027L7.5 8.51712L8.5 8.51712L8.5 5.51027L7.5 5.51027ZM7.5 11.524L7.5 14.5308L8.5 14.5308L8.5 11.524L7.5 11.524ZM7.5 17.5377L7.5 20.5445L8.5 20.5445L8.5 17.5377L7.5 17.5377ZM7.5 23.5514L7.5 26.5582L8.5 26.5582L8.5 23.5514L7.5 23.5514ZM7.5 29.5651L7.5 32.5719L8.5 32.5719L8.5 29.5651L7.5 29.5651ZM7.5 35.5788L7.5 38.5856L8.5 38.5856L8.5 35.5788L7.5 35.5788ZM7.5 41.5925L7.5 44.5993L8.5 44.5993L8.5 41.5925L7.5 41.5925ZM7.5 47.6062L7.5 50.613L8.5 50.613L8.5 47.6062L7.5 47.6062ZM7.5 53.6199L7.5 56.6267L8.5 56.6267L8.5 53.6199L7.5 53.6199ZM7.5 59.6336L7.5 62.6404L8.5 62.6404L8.5 59.6336L7.5 59.6336ZM7.5 65.6473L7.5 68.6541L8.5 68.6541L8.5 65.6473L7.5 65.6473ZM7.5 71.661L7.5 74.6678L8.5 74.6678L8.5 71.661L7.5 71.661ZM7.5 77.6747L7.5 80.6815L8.5 80.6815L8.5 77.6747L7.5 77.6747ZM7.5 83.6884L7.5 86.6952L8.5 86.6952L8.5 83.6884L7.5 83.6884ZM7.5 89.7021L7.5 92.7089L8.5 92.7089L8.5 89.7021L7.5 89.7021ZM7.5 95.7158L7.5 98.7226L8.5 98.7226L8.5 95.7158L7.5 95.7158ZM7.5 101.729L7.5 104.736L8.5 104.736L8.5 101.729L7.5 101.729ZM7.5 107.743L7.5 110.75L8.5 110.75L8.5 107.743L7.5 107.743ZM7.5 113.757L7.50001 116.764L8.50001 116.764L8.5 113.757L7.5 113.757ZM7.50001 119.771L7.50001 122.777L8.50001 122.777L8.50001 119.771L7.50001 119.771ZM7.50001 125.784L7.50001 128.791L8.50001 128.791L8.50001 125.784L7.50001 125.784ZM7.50001 131.798L7.50001 134.805L8.50001 134.805L8.50001 131.798L7.50001 131.798ZM7.50001 137.812L7.50001 140.819L8.50001 140.819L8.50001 137.812L7.50001 137.812ZM7.50001 143.825L7.50001 146.832L8.50001 146.832L8.50001 143.825L7.50001 143.825ZM7.50001 149.839L7.50001 152.846L8.50001 152.846L8.50001 149.839L7.50001 149.839ZM7.50001 155.853L7.50001 158.86L8.50001 158.86L8.50001 155.853L7.50001 155.853ZM7.50001 161.867L7.50001 164.873L8.50001 164.873L8.50001 161.867L7.50001 161.867ZM7.50001 167.88L7.50001 170.887L8.50001 170.887L8.50001 167.88L7.50001 167.88ZM7.50001 173.894L7.50001 176.901L8.50001 176.901L8.50001 173.894L7.50001 173.894ZM7.50001 179.908L7.50001 182.914L8.50001 182.914L8.50001 179.908L7.50001 179.908ZM7.50001 185.921L7.50001 188.928L8.50001 188.928L8.50001 185.921L7.50001 185.921ZM7.50001 191.935L7.50001 194.942L8.50001 194.942L8.50001 191.935L7.50001 191.935ZM7.50001 197.949L7.50001 200.956L8.50001 200.956L8.50001 197.949L7.50001 197.949ZM7.50001 203.962L7.50001 206.969L8.50001 206.969L8.50001 203.962L7.50001 203.962ZM7.50001 209.976L7.50001 212.983L8.50001 212.983L8.50001 209.976L7.50001 209.976ZM7.50001 215.99L7.50001 218.997L8.50001 218.997L8.50001 215.99L7.50001 215.99ZM7.50001 222.004L7.50001 225.01L8.50001 225.01L8.50001 222.004L7.50001 222.004ZM7.50001 228.017L7.50001 231.024L8.50001 231.024L8.50001 228.017L7.50001 228.017ZM7.50001 234.031L7.50001 237.038L8.50001 237.038L8.50001 234.031L7.50001 234.031ZM7.50001 240.045L7.50001 243.051L8.50001 243.051L8.50001 240.045L7.50001 240.045ZM7.50001 246.058L7.50001 249.065L8.50001 249.065L8.50001 246.058L7.50001 246.058ZM7.50001 252.072L7.50001 255.079L8.50001 255.079L8.50001 252.072L7.50001 252.072ZM7.50001 258.086L7.50001 261.093L8.50001 261.093L8.50001 258.086L7.50001 258.086ZM7.50001 264.099L7.50001 267.106L8.50001 267.106L8.50001 264.099L7.50001 264.099ZM7.50001 270.113L7.50001 273.12L8.50001 273.12L8.50001 270.113L7.50001 270.113ZM7.50001 276.127L7.50001 279.134L8.50001 279.134L8.50001 276.127L7.50001 276.127ZM7.50001 282.14L7.50001 285.147L8.50001 285.147L8.50001 282.14L7.50001 282.14ZM7.50001 288.154L7.50001 291.161L8.50001 291.161L8.50001 288.154L7.50001 288.154ZM7.50001 294.168L7.50001 297.175L8.50001 297.175L8.50001 294.168L7.50001 294.168ZM7.50001 300.181L7.50001 303.188L8.50001 303.188L8.50001 300.181L7.50001 300.181ZM7.50001 306.195L7.50001 309.202L8.50001 309.202L8.50001 306.195L7.50001 306.195ZM7.50001 312.209L7.50001 315.216L8.50001 315.216L8.50001 312.209L7.50001 312.209ZM7.50001 318.222L7.50001 321.229L8.50001 321.229L8.50001 318.222L7.50001 318.222ZM7.50001 324.236L7.50001 327.243L8.50001 327.243L8.50001 324.236L7.50001 324.236ZM7.50001 330.25L7.50001 333.257L8.50001 333.257L8.50001 330.25L7.50001 330.25ZM7.50001 336.263L7.50001 339.27L8.50001 339.27L8.50001 336.263L7.50001 336.263ZM7.50001 342.277L7.50002 345.284L8.50002 345.284L8.50001 342.277L7.50001 342.277ZM7.50002 348.291L7.50002 351.298L8.50002 351.298L8.50002 348.291L7.50002 348.291ZM7.50002 354.305L7.50002 357.311L8.50002 357.311L8.50002 354.305L7.50002 354.305ZM7.50002 360.318L7.50002 363.325L8.50002 363.325L8.50002 360.318L7.50002 360.318ZM7.50002 366.332L7.50002 369.339L8.50002 369.339L8.50002 366.332L7.50002 366.332ZM7.50002 372.346L7.50002 375.352L8.50002 375.352L8.50002 372.346L7.50002 372.346ZM7.50002 378.359L7.50002 381.366L8.50002 381.366L8.50002 378.359L7.50002 378.359ZM7.50002 384.373L7.50002 387.38L8.50002 387.38L8.50002 384.373L7.50002 384.373ZM7.50002 390.387L7.50002 393.393L8.50002 393.393L8.50002 390.387L7.50002 390.387ZM7.50002 396.4L7.50002 399.407L8.50002 399.407L8.50002 396.4L7.50002 396.4ZM7.50002 402.414L7.50002 405.421L8.50002 405.421L8.50002 402.414L7.50002 402.414ZM7.50002 408.428L7.50002 411.434L8.50002 411.434L8.50002 408.428L7.50002 408.428ZM7.50002 414.441L7.50002 417.448L8.50002 417.448L8.50002 414.441L7.50002 414.441ZM7.50002 420.455L7.50002 423.462L8.50002 423.462L8.50002 420.455L7.50002 420.455ZM7.50002 426.469L7.50002 429.475L8.50002 429.475L8.50002 426.469L7.50002 426.469ZM7.50002 432.482L7.50002 435.489L8.50002 435.489L8.50002 432.482L7.50002 432.482ZM7.50002 438.496L7.50002 440L8.50002 440L8.50002 438.496L7.50002 438.496ZM8.70711 0.292893C8.31658 -0.0976311 7.68342 -0.0976311 7.29289 0.292893L0.928932 6.65685C0.538408 7.04738 0.538408 7.68054 0.928932 8.07107C1.31946 8.46159 1.95262 8.46159 2.34315 8.07107L8 2.41421L13.6569 8.07107C14.0474 8.46159 14.6805 8.46159 15.0711 8.07107C15.4616 7.68054 15.4616 7.04738 15.0711 6.65685L8.70711 0.292893ZM7 1L7 2.50342L9 2.50342L9 1L7 1ZM7 5.51027L7 8.51712L9 8.51712L9 5.51027L7 5.51027ZM7 11.524L7 14.5308L9 14.5308L9 11.524L7 11.524ZM7 17.5377L7 20.5445L9 20.5445L9 17.5377L7 17.5377ZM7 23.5514L7 26.5582L9 26.5582L9 23.5514L7 23.5514ZM7 29.5651L7 32.5719L9 32.5719L9 29.5651L7 29.5651ZM7 35.5788L7 38.5856L9 38.5856L9 35.5788L7 35.5788ZM7 41.5925L7 44.5993L9 44.5993L9 41.5925L7 41.5925ZM7 47.6062L7 50.613L9 50.613L9 47.6062L7 47.6062ZM7 53.6199L7 56.6267L9 56.6267L9 53.6199L7 53.6199ZM7 59.6336L7 62.6404L9 62.6404L9 59.6336L7 59.6336ZM7 65.6473L7 68.6541L9 68.6541L9 65.6473L7 65.6473ZM7 71.661L7 74.6678L9 74.6678L9 71.661L7 71.661ZM7 77.6747L7 80.6815L9 80.6815L9 77.6747L7 77.6747ZM7 83.6884L7 86.6952L9 86.6952L9 83.6884L7 83.6884ZM7 89.7021L7 92.7089L9 92.7089L9 89.7021L7 89.7021ZM7 95.7158L7 98.7226L9 98.7226L9 95.7158L7 95.7158ZM7 101.729L7 104.736L9 104.736L9 101.729L7 101.729ZM7 107.743L7 110.75L9 110.75L9 107.743L7 107.743ZM7 113.757L7.00001 116.764L9.00001 116.764L9 113.757L7 113.757ZM7.00001 119.771L7.00001 122.777L9.00001 122.777L9.00001 119.771L7.00001 119.771ZM7.00001 125.784L7.00001 128.791L9.00001 128.791L9.00001 125.784L7.00001 125.784ZM7.00001 131.798L7.00001 134.805L9.00001 134.805L9.00001 131.798L7.00001 131.798ZM7.00001 137.812L7.00001 140.819L9.00001 140.819L9.00001 137.812L7.00001 137.812ZM7.00001 143.825L7.00001 146.832L9.00001 146.832L9.00001 143.825L7.00001 143.825ZM7.00001 149.839L7.00001 152.846L9.00001 152.846L9.00001 149.839L7.00001 149.839ZM7.00001 155.853L7.00001 158.86L9.00001 158.86L9.00001 155.853L7.00001 155.853ZM7.00001 161.867L7.00001 164.873L9.00001 164.873L9.00001 161.867L7.00001 161.867ZM7.00001 167.88L7.00001 170.887L9.00001 170.887L9.00001 167.88L7.00001 167.88ZM7.00001 173.894L7.00001 176.901L9.00001 176.901L9.00001 173.894L7.00001 173.894ZM7.00001 179.908L7.00001 182.914L9.00001 182.914L9.00001 179.908L7.00001 179.908ZM7.00001 185.921L7.00001 188.928L9.00001 188.928L9.00001 185.921L7.00001 185.921ZM7.00001 191.935L7.00001 194.942L9.00001 194.942L9.00001 191.935L7.00001 191.935ZM7.00001 197.949L7.00001 200.956L9.00001 200.956L9.00001 197.949L7.00001 197.949ZM7.00001 203.962L7.00001 206.969L9.00001 206.969L9.00001 203.962L7.00001 203.962ZM7.00001 209.976L7.00001 212.983L9.00001 212.983L9.00001 209.976L7.00001 209.976ZM7.00001 215.99L7.00001 218.997L9.00001 218.997L9.00001 215.99L7.00001 215.99ZM7.00001 222.004L7.00001 225.01L9.00001 225.01L9.00001 222.004L7.00001 222.004ZM7.00001 228.017L7.00001 231.024L9.00001 231.024L9.00001 228.017L7.00001 228.017ZM7.00001 234.031L7.00001 237.038L9.00001 237.038L9.00001 234.031L7.00001 234.031ZM7.00001 240.045L7.00001 243.051L9.00001 243.051L9.00001 240.045L7.00001 240.045ZM7.00001 246.058L7.00001 249.065L9.00001 249.065L9.00001 246.058L7.00001 246.058ZM7.00001 252.072L7.00001 255.079L9.00001 255.079L9.00001 252.072L7.00001 252.072ZM7.00001 258.086L7.00001 261.093L9.00001 261.093L9.00001 258.086L7.00001 258.086ZM7.00001 264.099L7.00001 267.106L9.00001 267.106L9.00001 264.099L7.00001 264.099ZM7.00001 270.113L7.00001 273.12L9.00001 273.12L9.00001 270.113L7.00001 270.113ZM7.00001 276.127L7.00001 279.134L9.00001 279.134L9.00001 276.127L7.00001 276.127ZM7.00001 282.14L7.00001 285.147L9.00001 285.147L9.00001 282.14L7.00001 282.14ZM7.00001 288.154L7.00001 291.161L9.00001 291.161L9.00001 288.154L7.00001 288.154ZM7.00001 294.168L7.00001 297.175L9.00001 297.175L9.00001 294.168L7.00001 294.168ZM7.00001 300.181L7.00001 303.188L9.00001 303.188L9.00001 300.181L7.00001 300.181ZM7.00001 306.195L7.00001 309.202L9.00001 309.202L9.00001 306.195L7.00001 306.195ZM7.00001 312.209L7.00001 315.216L9.00001 315.216L9.00001 312.209L7.00001 312.209ZM7.00001 318.222L7.00001 321.229L9.00001 321.229L9.00001 318.222L7.00001 318.222ZM7.00001 324.236L7.00001 327.243L9.00001 327.243L9.00001 324.236L7.00001 324.236ZM7.00001 330.25L7.00001 333.257L9.00001 333.257L9.00001 330.25L7.00001 330.25ZM7.00001 336.263L7.00001 339.27L9.00001 339.27L9.00001 336.263L7.00001 336.263ZM7.00001 342.277L7.00002 345.284L9.00002 345.284L9.00001 342.277L7.00001 342.277ZM7.00002 348.291L7.00002 351.298L9.00002 351.298L9.00002 348.291L7.00002 348.291ZM7.00002 354.305L7.00002 357.311L9.00002 357.311L9.00002 354.305L7.00002 354.305ZM7.00002 360.318L7.00002 363.325L9.00002 363.325L9.00002 360.318L7.00002 360.318ZM7.00002 366.332L7.00002 369.339L9.00002 369.339L9.00002 366.332L7.00002 366.332ZM7.00002 372.346L7.00002 375.352L9.00002 375.352L9.00002 372.346L7.00002 372.346ZM7.00002 378.359L7.00002 381.366L9.00002 381.366L9.00002 378.359L7.00002 378.359ZM7.00002 384.373L7.00002 387.38L9.00002 387.38L9.00002 384.373L7.00002 384.373ZM7.00002 390.387L7.00002 393.393L9.00002 393.393L9.00002 390.387L7.00002 390.387ZM7.00002 396.4L7.00002 399.407L9.00002 399.407L9.00002 396.4L7.00002 396.4ZM7.00002 402.414L7.00002 405.421L9.00002 405.421L9.00002 402.414L7.00002 402.414ZM7.00002 408.428L7.00002 411.434L9.00002 411.434L9.00002 408.428L7.00002 408.428ZM7.00002 414.441L7.00002 417.448L9.00002 417.448L9.00002 414.441L7.00002 414.441ZM7.00002 420.455L7.00002 423.462L9.00002 423.462L9.00002 420.455L7.00002 420.455ZM7.00002 426.469L7.00002 429.475L9.00002 429.475L9.00002 426.469L7.00002 426.469ZM7.00002 432.482L7.00002 435.489L9.00002 435.489L9.00002 432.482L7.00002 432.482ZM7.00002 438.496L7.00002 440L9.00002 440L9.00002 438.496L7.00002 438.496Z" fill="#020034"/>
</svg>

