<svg id="976cef58-dd0b-4a77-992c-6858b0a4c7ba" data-name="Capa 1" xmlns="http://www.w3.org/2000/svg" width="400" height="200.82" viewBox="0 0 400 200.82">
  <defs>
    <style>
      .da83f63f-cd8b-4c77-8d92-a7bece3942c1 {
        fill: #ffffff;
      }
    </style>
  </defs>
  <title>resilience_earth</title>
  <g>
    <g>
      <path class="da83f63f-cd8b-4c77-8d92-a7bece3942c1" d="M263.55,113.69a19.33,19.33,0,0,1-3.79,8.52,22,22,0,0,1-7.18,6.11,24.76,24.76,0,0,1-8.21,2.72,20.51,20.51,0,0,1-8.09-.41,19.51,19.51,0,0,1-7.16-3.56,22.06,22.06,0,0,1-8-15,19.51,19.51,0,0,1,1-7.92,20.5,20.5,0,0,1,4.18-6.94A24.74,24.74,0,0,1,233.21,92a19.39,19.39,0,0,1,7.42-2.3,15.89,15.89,0,0,1,7.09.94,19,19,0,0,1,6.3,4,26.26,26.26,0,0,1,5.13,6.88l1.78,3.35L236.12,118a9.59,9.59,0,0,0,5.38,3.4,8.92,8.92,0,0,0,6.25-1,9.1,9.1,0,0,0,3.83-3.55,13.55,13.55,0,0,0,1.56-4.72Zm-17.18-10.44a7,7,0,0,0-4.25-3.69,7.19,7.19,0,0,0-5.8.62,9.1,9.1,0,0,0-2.83,2.24,8.92,8.92,0,0,0-1.54,2.7,7.25,7.25,0,0,0-.4,2.87,7.68,7.68,0,0,0,.7,2.78Z" transform="translate(-0.6 -1.03)"/>
      <path class="da83f63f-cd8b-4c77-8d92-a7bece3942c1" d="M292.31,100.45l-.14.08a11.4,11.4,0,0,1-2.62,6.52,18.46,18.46,0,0,1-5.59,4.54,18.22,18.22,0,0,1-5,1.81,13.34,13.34,0,0,1-5,.08,11.11,11.11,0,0,1-4.49-1.91,11.58,11.58,0,0,1-3.47-4.1,12,12,0,0,1-1.59-5.65,11.21,11.21,0,0,1,1.17-5,16.86,16.86,0,0,1,3.19-4.4,35.79,35.79,0,0,1,4.44-3.78,54.54,54.54,0,0,1,5-3.2q2.56-1.46,4.78-2.64a6.31,6.31,0,0,0-4.44-3.45,8.31,8.31,0,0,0-5.7.89,11.87,11.87,0,0,0-4.23,3.67,14.91,14.91,0,0,0-2.27,5.1l-8.82-2.81a22.24,22.24,0,0,1,4.77-7.89,28.3,28.3,0,0,1,7.53-5.8,24.5,24.5,0,0,1,8.36-2.94,12.74,12.74,0,0,1,6.69.88,15.1,15.1,0,0,1,5.51,4.25,41.68,41.68,0,0,1,4.8,7.29l9.38,17.61-9.84,5.24ZM283.9,91q-1.21.65-3,1.72a17.4,17.4,0,0,0-3.17,2.47,8.82,8.82,0,0,0-2.06,3,3.91,3.91,0,0,0,.3,3.41,3.46,3.46,0,0,0,3.16,2,7.77,7.77,0,0,0,3.92-.9,12.16,12.16,0,0,0,2.8-2,10.25,10.25,0,0,0,2-2.6,6.65,6.65,0,0,0,.75-3,6.51,6.51,0,0,0-.84-3.21l-1.22-2.28Z" transform="translate(-0.6 -1.03)"/>
      <path class="da83f63f-cd8b-4c77-8d92-a7bece3942c1" d="M290.72,62.37l10.7-5.7,3,5.56.14-.08a14.9,14.9,0,0,1,1.5-7,11.64,11.64,0,0,1,5.06-4.76c.62-.33,1.25-.63,1.89-.92a10.56,10.56,0,0,1,1.86-.63l5.2,9.77a18.31,18.31,0,0,0-2.53.66,16.6,16.6,0,0,0-2.41,1.06,12.87,12.87,0,0,0-4.39,3.44,7.29,7.29,0,0,0-1.47,3.85,10.28,10.28,0,0,0,.71,4.34,40.45,40.45,0,0,0,2.22,4.86l7.71,14.48L309.18,97Z" transform="translate(-0.6 -1.03)"/>
      <path class="da83f63f-cd8b-4c77-8d92-a7bece3942c1" d="M349.89,41.87l-9.41,5,6.15,11.55A24.47,24.47,0,0,0,348.16,61a5.94,5.94,0,0,0,1.72,1.69,3.67,3.67,0,0,0,2.24.5,7.69,7.69,0,0,0,3-1,20.92,20.92,0,0,0,2.15-1.37,4.31,4.31,0,0,0,1.67-1.94l4.75,8.91a18.41,18.41,0,0,1-3.25,2.83,38.89,38.89,0,0,1-3.67,2.23,23.31,23.31,0,0,1-5.3,2.09,12.9,12.9,0,0,1-5,.31,9.64,9.64,0,0,1-4.4-1.82,12.55,12.55,0,0,1-3.55-4.34l-8.77-16.47-6.85,3.65-4.56-8.56L325.23,44l-5.47-10.27,10.7-5.7,5.47,10.27,9.41-5Z" transform="translate(-0.6 -1.03)"/>
      <path class="da83f63f-cd8b-4c77-8d92-a7bece3942c1" d="M349.21,6.52l12.76,24,.14-.08a7.3,7.3,0,0,1,.15-2.64,10.7,10.7,0,0,1,1.12-2.88,12.72,12.72,0,0,1,2.17-2.8,13.81,13.81,0,0,1,3.3-2.4,16.69,16.69,0,0,1,7.23-2.25,10.75,10.75,0,0,1,5.73,1.39,15.83,15.83,0,0,1,4.66,4.2,44.91,44.91,0,0,1,4,6.22L400.6,48.35,389.9,54l-9-17q-.8-1.5-1.76-3a11.05,11.05,0,0,0-2.22-2.62,5.21,5.21,0,0,0-6.45-.5,7.48,7.48,0,0,0-3,2.53,5.78,5.78,0,0,0-.9,3,9.23,9.23,0,0,0,.61,3.29,27.59,27.59,0,0,0,1.53,3.39l9.19,17.26-10.7,5.7L338.51,12.22Z" transform="translate(-0.6 -1.03)"/>
    </g>
    <path class="da83f63f-cd8b-4c77-8d92-a7bece3942c1" d="M83.52,183.29A14,14,0,0,1,86,178.41a13.22,13.22,0,0,1,9.09-5,14.34,14.34,0,0,1,10.33,3,13.22,13.22,0,0,1,5,9.09,14.37,14.37,0,0,1-3,10.34,13.22,13.22,0,0,1-9.09,5,14.37,14.37,0,0,1-10.33-3,13.22,13.22,0,0,1-5-9.09A14,14,0,0,1,83.52,183.29Z" transform="translate(-0.6 -1.03)"/>
    <path class="da83f63f-cd8b-4c77-8d92-a7bece3942c1" d="M318.27,42.55,27.42,201.86l-4.66-8.5L313.61,34.05Z" transform="translate(-0.6 -1.03)"/>
    <g>
      <path class="da83f63f-cd8b-4c77-8d92-a7bece3942c1" d="M.6,154.26l10.61-5.85,3,5.52.14-.08a14.9,14.9,0,0,1,1.4-7,11.64,11.64,0,0,1,5-4.83c.61-.34,1.24-.65,1.88-.94a10.56,10.56,0,0,1,1.85-.65l5.35,9.69a18.31,18.31,0,0,0-2.52.7,16.6,16.6,0,0,0-2.4,1.09,12.87,12.87,0,0,0-4.34,3.5,7.29,7.29,0,0,0-1.42,3.87A10.28,10.28,0,0,0,20,163.6a40.45,40.45,0,0,0,2.29,4.83l7.92,14.36-10.61,5.85Z" transform="translate(-0.6 -1.03)"/>
      <path class="da83f63f-cd8b-4c77-8d92-a7bece3942c1" d="M75.33,150.13a19.33,19.33,0,0,1-3.67,8.57,22,22,0,0,1-7.09,6.22,24.76,24.76,0,0,1-8.17,2.84,20.51,20.51,0,0,1-8.09-.29A19.51,19.51,0,0,1,41.1,164a22.06,22.06,0,0,1-8.19-14.86,19.51,19.51,0,0,1,.93-7.94,20.5,20.5,0,0,1,4.07-7,24.74,24.74,0,0,1,6.76-5.39,19.39,19.39,0,0,1,7.39-2.41,15.89,15.89,0,0,1,7.1.83,19,19,0,0,1,6.36,3.92,26.26,26.26,0,0,1,5.23,6.8l1.83,3.32L48,154.89a9.59,9.59,0,0,0,5.43,3.32,8.92,8.92,0,0,0,6.23-1.08,9.1,9.1,0,0,0,3.78-3.61,13.55,13.55,0,0,0,1.49-4.74ZM58,139.95a7,7,0,0,0-4.3-3.62,7.19,7.19,0,0,0-5.79.7,9.1,9.1,0,0,0-2.8,2.28,8.92,8.92,0,0,0-1.5,2.72,7.25,7.25,0,0,0-.35,2.87,7.68,7.68,0,0,0,.74,2.77Z" transform="translate(-0.6 -1.03)"/>
      <path class="da83f63f-cd8b-4c77-8d92-a7bece3942c1" d="M91.57,117.28a8.58,8.58,0,0,0-7.76.49,6.61,6.61,0,0,0-2.27,2.08,2.57,2.57,0,0,0-.06,2.9,2.25,2.25,0,0,0,2.34,1.15,19.64,19.64,0,0,0,3.91-.77l4.86-1.39a18.54,18.54,0,0,1,5.23-.72,11.05,11.05,0,0,1,5,1.24,10.49,10.49,0,0,1,4.18,4.48A11,11,0,0,1,108.6,133a12.69,12.69,0,0,1-1.8,5.52,18.24,18.24,0,0,1-4.08,4.65,34.64,34.64,0,0,1-5.3,3.61,30.9,30.9,0,0,1-7.85,3,15.54,15.54,0,0,1-8.24-.21l2.5-10.7a12.17,12.17,0,0,0,4.83,1,10.12,10.12,0,0,0,4.74-1.37,11.25,11.25,0,0,0,3-2.36,2.23,2.23,0,0,0,.41-2.77,2.46,2.46,0,0,0-2.42-1.29,16.45,16.45,0,0,0-3.95.7l-4.86,1.39a20.3,20.3,0,0,1-5.19.79,10.31,10.31,0,0,1-5-1.17,10.47,10.47,0,0,1-4.18-4.48,12,12,0,0,1-1.65-5.92,12.44,12.44,0,0,1,1.26-5.4,16.1,16.1,0,0,1,3.48-4.64,24.26,24.26,0,0,1,4.94-3.6A28.43,28.43,0,0,1,86.7,107a14.55,14.55,0,0,1,7.82.3Z" transform="translate(-0.6 -1.03)"/>
      <path class="da83f63f-cd8b-4c77-8d92-a7bece3942c1" d="M91.09,90.23a7,7,0,1,1,4.2,3.36A6.77,6.77,0,0,1,91.09,90.23Zm6.82,10.35,10.61-5.85,19,34.38L116.87,135Z" transform="translate(-0.6 -1.03)"/>
      <path class="da83f63f-cd8b-4c77-8d92-a7bece3942c1" d="M104,72.31l10.61-5.85,29.5,53.48-10.61,5.85Z" transform="translate(-0.6 -1.03)"/>
      <path class="da83f63f-cd8b-4c77-8d92-a7bece3942c1" d="M124.37,71.88a7,7,0,1,1,4.2,3.36A6.77,6.77,0,0,1,124.37,71.88Zm6.82,10.35,10.61-5.85,19,34.38-10.61,5.85Z" transform="translate(-0.6 -1.03)"/>
      <path class="da83f63f-cd8b-4c77-8d92-a7bece3942c1" d="M195.15,84a19.33,19.33,0,0,1-3.67,8.57,22,22,0,0,1-7.09,6.22,24.76,24.76,0,0,1-8.17,2.84,20.51,20.51,0,0,1-8.09-.29,19.51,19.51,0,0,1-7.21-3.45,22.06,22.06,0,0,1-8.19-14.86,19.51,19.51,0,0,1,.93-7.94,20.5,20.5,0,0,1,4.07-7,24.74,24.74,0,0,1,6.76-5.39,19.39,19.39,0,0,1,7.39-2.41,15.89,15.89,0,0,1,7.1.83,19,19,0,0,1,6.36,3.92,26.26,26.26,0,0,1,5.23,6.8l1.83,3.32L167.79,88.8a9.59,9.59,0,0,0,5.43,3.32A8.92,8.92,0,0,0,179.45,91a9.1,9.1,0,0,0,3.78-3.61,13.55,13.55,0,0,0,1.49-4.74ZM177.81,73.86a7,7,0,0,0-4.3-3.62,7.19,7.19,0,0,0-5.79.7,9.1,9.1,0,0,0-2.8,2.28,8.92,8.92,0,0,0-1.5,2.72,7.25,7.25,0,0,0-.35,2.87,7.68,7.68,0,0,0,.74,2.77Z" transform="translate(-0.6 -1.03)"/>
      <path class="da83f63f-cd8b-4c77-8d92-a7bece3942c1" d="M184.3,52.93l10.19-5.62L197.06,52l.14-.08a9.8,9.8,0,0,1,.32-2.76,11.76,11.76,0,0,1,1.22-3,14.3,14.3,0,0,1,2.2-2.87,13.81,13.81,0,0,1,3.26-2.45,16.69,16.69,0,0,1,7.19-2.35,10.75,10.75,0,0,1,5.75,1.3,15.83,15.83,0,0,1,4.72,4.13,44.91,44.91,0,0,1,4,6.16l10.46,19L225.76,74.9l-9.29-16.84q-.82-1.49-1.8-3a11.05,11.05,0,0,0-2.26-2.59,5.21,5.21,0,0,0-6.45-.41A7.48,7.48,0,0,0,203,54.63a5.78,5.78,0,0,0-.85,3.05,9.23,9.23,0,0,0,.66,3.28,27.59,27.59,0,0,0,1.58,3.37l9.44,17.12-10.61,5.85Z" transform="translate(-0.6 -1.03)"/>
      <path class="da83f63f-cd8b-4c77-8d92-a7bece3942c1" d="M251.08,30.58a6.81,6.81,0,0,0-3.23-.66,7.37,7.37,0,0,0-3.45.94,9.27,9.27,0,0,0-4.93,5.86,10.16,10.16,0,0,0,1.24,7.53,10.16,10.16,0,0,0,5.7,5.07,9.27,9.27,0,0,0,7.59-1,6.54,6.54,0,0,0,2.61-2.46,10.62,10.62,0,0,0,1.18-3l11.06,3.49A15.45,15.45,0,0,1,265,53a25.08,25.08,0,0,1-5.84,4.56A24.76,24.76,0,0,1,251,60.44a20.51,20.51,0,0,1-8.09-.29,19.51,19.51,0,0,1-7.21-3.45,20.57,20.57,0,0,1-5.58-6.61,20.58,20.58,0,0,1-2.61-8.25,19.51,19.51,0,0,1,.93-7.94,20.5,20.5,0,0,1,4.07-7,24.74,24.74,0,0,1,6.76-5.39,25.08,25.08,0,0,1,7-2.5,15.46,15.46,0,0,1,7.81.35Z" transform="translate(-0.6 -1.03)"/>
      <path class="da83f63f-cd8b-4c77-8d92-a7bece3942c1" d="M302.5,24.83a19.33,19.33,0,0,1-3.67,8.57,22,22,0,0,1-7.09,6.22,24.76,24.76,0,0,1-8.17,2.84,20.51,20.51,0,0,1-8.09-.29,19.51,19.51,0,0,1-7.21-3.45,20.57,20.57,0,0,1-5.58-6.61,20.58,20.58,0,0,1-2.61-8.25,19.51,19.51,0,0,1,.93-7.94,20.5,20.5,0,0,1,4.07-7,24.74,24.74,0,0,1,6.76-5.39,19.39,19.39,0,0,1,7.39-2.41,15.89,15.89,0,0,1,7.1.83,19,19,0,0,1,6.36,3.92,26.26,26.26,0,0,1,5.23,6.8L299.76,16,275.14,29.59a9.59,9.59,0,0,0,5.43,3.32,8.92,8.92,0,0,0,6.23-1.08,9.1,9.1,0,0,0,3.78-3.61,13.55,13.55,0,0,0,1.49-4.74ZM285.16,14.64a7,7,0,0,0-4.3-3.62,7.19,7.19,0,0,0-5.79.7,9.1,9.1,0,0,0-2.8,2.28,8.92,8.92,0,0,0-1.5,2.72,7.25,7.25,0,0,0-.35,2.87,7.68,7.68,0,0,0,.74,2.77Z" transform="translate(-0.6 -1.03)"/>
    </g>
  </g>
<script xmlns="">try {
                        Object.defineProperty(screen, "availTop", { value: 0 });
                    } catch (e) {}
                    try {
                        Object.defineProperty(screen, "availLeft", { value: 0 });
                    } catch (e) {}
                    try {
                        Object.defineProperty(screen, "availWidth", { value: 1920 });
                    } catch (e) {}
                    try {
                        Object.defineProperty(screen, "availHeight", { value: 1080 });
                    } catch (e) {}
                    try {
                        Object.defineProperty(screen, "colorDepth", { value: 24 });
                    } catch (e) {}
                    try {
                        Object.defineProperty(screen, "pixelDepth", { value: 24 });
                    } catch (e) {}
                    try {
                        Object.defineProperty(navigator, "hardwareConcurrency", { value: 8 });
                    } catch (e) {}
                    try {
                        Object.defineProperty(navigator, "appVersion", { value: "5.0 (X11)" });
                    } catch (e) {}
                    try {
                        Object.defineProperty(navigator, "doNotTrack", { value: "unspecified" });
                    } catch (e) {}
                    
            try {
                window.screenY = 0
            } catch (e) { }
        
            try {
                window.screenTop = 0
            } catch (e) { }
        
            try {
                window.top.window.outerHeight = window.screen.height
            } catch (e) { }
        
            try {
                window.screenX = 0
            } catch (e) { }
        
            try {
                window.screenLeft = 0
            } catch (e) { }
        
            try {
                window.top.window.outerWidth = window.screen.width
            } catch (e) { }
        </script></svg>
